<svg width="330" height="84" viewBox="0 0 330 84" fill="none" xmlns="http://www.w3.org/2000/svg">
<rect x="1" y="1" width="328" height="82" rx="3" fill="white" stroke="#828282" stroke-width="2"/>
<path fill-rule="evenodd" clip-rule="evenodd" d="M52.9994 8.66602C34.5993 8.66602 19.666 23.5993 19.666 41.9994C19.666 60.3994 34.5993 75.3327 52.9994 75.3327C71.3994 75.3327 86.3327 60.3994 86.3327 41.9994C86.3327 23.5993 71.3994 8.66602 52.9994 8.66602ZM36.5659 62.9327C37.9992 59.9327 46.7326 56.9993 52.9992 56.9993C59.2659 56.9993 68.0326 59.9327 69.4326 62.9327C64.8992 66.5327 59.1992 68.666 52.9992 68.666C46.7992 68.666 41.0992 66.5327 36.5659 62.9327ZM52.9993 50.3327C57.866 50.3327 69.4327 52.2994 74.1993 58.0994C77.5993 53.6327 79.666 48.066 79.666 41.9994C79.666 27.2994 67.6993 15.3327 52.9993 15.3327C38.2993 15.3327 26.3327 27.2994 26.3327 41.9994C26.3327 48.066 28.3993 53.6327 31.7993 58.0994C36.566 52.2994 48.1327 50.3327 52.9993 50.3327ZM52.9993 21.9993C46.5327 21.9993 41.3327 27.1993 41.3327 33.666C41.3327 40.1327 46.5327 45.3327 52.9993 45.3327C59.466 45.3327 64.666 40.1327 64.666 33.666C64.666 27.1993 59.466 21.9993 52.9993 21.9993ZM47.9993 33.666C47.9993 36.4327 50.2327 38.666 52.9993 38.666C55.766 38.666 57.9993 36.4327 57.9993 33.666C57.9993 30.8993 55.766 28.666 52.9993 28.666C50.2327 28.666 47.9993 30.8993 47.9993 33.666Z" fill="#828282"/>
<path d="M155.792 49.4565C154.657 49.9897 153.362 50.2563 151.906 50.2563C150.867 50.2563 149.923 50.0752 149.076 49.7129C148.228 49.3438 147.503 48.8345 146.902 48.1851C146.307 47.5356 145.846 46.7632 145.518 45.8677C145.196 44.9722 145.036 43.9946 145.036 42.9351C145.036 41.8208 145.207 40.7852 145.548 39.8281C145.897 38.8643 146.393 38.0303 147.035 37.3262C147.678 36.6152 148.454 36.0581 149.363 35.6548C150.279 35.2515 151.304 35.0498 152.439 35.0498C153.69 35.0498 154.808 35.2412 155.792 35.624V37.0801C154.739 36.5537 153.615 36.2905 152.418 36.2905C151.468 36.2905 150.624 36.4546 149.886 36.7827C149.147 37.1108 148.525 37.5688 148.02 38.1567C147.514 38.7378 147.127 39.4282 146.861 40.228C146.594 41.021 146.461 41.8892 146.461 42.8325C146.461 43.6802 146.581 44.48 146.82 45.2319C147.059 45.9771 147.411 46.6299 147.876 47.1904C148.348 47.751 148.932 48.1953 149.629 48.5234C150.327 48.8516 151.137 49.0156 152.06 49.0156C153.475 49.0156 154.719 48.7183 155.792 48.1235V49.4565ZM159.36 36.8442C159.107 36.8442 158.889 36.7554 158.704 36.5776C158.52 36.3999 158.427 36.1743 158.427 35.9009C158.427 35.6343 158.52 35.4155 158.704 35.2446C158.889 35.0669 159.107 34.978 159.36 34.978C159.49 34.978 159.613 35.002 159.729 35.0498C159.846 35.0908 159.945 35.1523 160.027 35.2344C160.116 35.3164 160.184 35.4155 160.232 35.5317C160.287 35.6411 160.314 35.7642 160.314 35.9009C160.314 36.0308 160.29 36.1538 160.242 36.27C160.194 36.3862 160.126 36.4888 160.037 36.5776C159.948 36.6597 159.846 36.7246 159.729 36.7725C159.62 36.8203 159.497 36.8442 159.36 36.8442ZM158.714 50V39.5H160.027V50H158.714ZM167.922 49.877C167.471 50.1025 166.979 50.2153 166.446 50.2153C164.75 50.2153 163.903 49.2378 163.903 47.2827V40.6484H162.057V39.5H163.903V36.8545L165.215 36.4238V39.5H167.922V40.6484H165.215V47.0776C165.215 47.7886 165.332 48.3013 165.564 48.6157C165.796 48.9302 166.189 49.0874 166.743 49.0874C167.153 49.0874 167.546 48.9644 167.922 48.7183V49.877ZM174.229 50.2461C173.449 50.2461 172.749 50.1162 172.126 49.8564C171.511 49.5967 170.985 49.231 170.547 48.7593C170.11 48.2808 169.775 47.71 169.542 47.0469C169.31 46.3838 169.194 45.6489 169.194 44.8423C169.194 43.9673 169.317 43.1846 169.563 42.4941C169.809 41.8037 170.158 41.2192 170.609 40.7407C171.067 40.2554 171.617 39.8862 172.26 39.6333C172.902 39.3804 173.62 39.2539 174.413 39.2539C175.172 39.2539 175.855 39.3804 176.464 39.6333C177.072 39.8794 177.588 40.2383 178.012 40.71C178.436 41.1816 178.761 41.7559 178.986 42.4326C179.212 43.1094 179.325 43.8784 179.325 44.7397C179.325 45.5601 179.205 46.3086 178.966 46.9854C178.733 47.6553 178.398 48.2329 177.961 48.7183C177.523 49.2036 176.99 49.5796 176.361 49.8462C175.732 50.1128 175.021 50.2461 174.229 50.2461ZM174.331 40.3921C173.757 40.3921 173.237 40.4912 172.772 40.6895C172.308 40.8877 171.908 41.1782 171.573 41.561C171.245 41.937 170.992 42.4019 170.814 42.9556C170.636 43.5024 170.547 44.1245 170.547 44.8218C170.547 45.478 170.636 46.0693 170.814 46.5957C170.992 47.1221 171.241 47.5732 171.562 47.9492C171.891 48.3252 172.287 48.6157 172.752 48.8208C173.217 49.019 173.736 49.1182 174.311 49.1182C174.898 49.1182 175.418 49.0225 175.869 48.8311C176.32 48.6328 176.703 48.3491 177.018 47.98C177.332 47.604 177.568 47.146 177.725 46.606C177.889 46.0659 177.971 45.4507 177.971 44.7603C177.971 43.3452 177.657 42.2651 177.028 41.52C176.399 40.7681 175.5 40.3921 174.331 40.3921ZM185.016 51.9072C184.605 52.9326 184.134 53.6914 183.601 54.1836C183.067 54.6826 182.421 54.9321 181.663 54.9321C181.287 54.9321 180.969 54.8877 180.709 54.7988V53.5684C180.859 53.623 181.01 53.6641 181.16 53.6914C181.317 53.7188 181.475 53.7324 181.632 53.7324C182.062 53.7324 182.435 53.5957 182.75 53.3223C183.071 53.0557 183.348 52.6489 183.58 52.1021L184.493 49.9487L180.453 39.5H181.909L184.913 47.8159C184.954 47.9253 184.992 48.0518 185.026 48.1953C185.067 48.332 185.104 48.4688 185.139 48.6055H185.19C185.224 48.4893 185.255 48.373 185.282 48.2568C185.316 48.1338 185.361 48.0005 185.416 47.8569L188.604 39.5H189.989L185.016 51.9072ZM192.337 44.9858C192.344 45.6284 192.429 46.2061 192.593 46.7188C192.757 47.2314 192.993 47.6655 193.301 48.021C193.608 48.3765 193.981 48.6499 194.418 48.8413C194.863 49.0259 195.362 49.1182 195.916 49.1182C197.098 49.1182 198.216 48.7046 199.269 47.8774V49.1694C198.264 49.8872 197.047 50.2461 195.618 50.2461C194.914 50.2461 194.275 50.123 193.701 49.877C193.126 49.6309 192.638 49.2754 192.234 48.8105C191.831 48.3389 191.52 47.7612 191.301 47.0776C191.083 46.394 190.973 45.6147 190.973 44.7397C190.973 43.9536 191.093 43.2256 191.332 42.5557C191.571 41.8857 191.903 41.3081 192.327 40.8228C192.75 40.3306 193.253 39.9478 193.834 39.6743C194.415 39.394 195.051 39.2539 195.741 39.2539C196.418 39.2539 197.016 39.3735 197.536 39.6128C198.055 39.8452 198.489 40.1802 198.838 40.6177C199.193 41.0552 199.463 41.5884 199.648 42.2173C199.833 42.8462 199.925 43.5503 199.925 44.3296V44.9858H192.337ZM198.571 43.8374C198.551 42.7437 198.291 41.896 197.792 41.2944C197.293 40.6929 196.599 40.3921 195.71 40.3921C195.266 40.3921 194.853 40.4707 194.47 40.6279C194.094 40.7852 193.762 41.0142 193.475 41.3149C193.188 41.6089 192.949 41.9712 192.757 42.4019C192.573 42.8257 192.443 43.3042 192.368 43.8374H198.571ZM209.584 50V43.9502C209.584 41.5781 208.723 40.3921 207 40.3921C206.542 40.3921 206.118 40.4844 205.729 40.6689C205.339 40.8467 205 41.0962 204.713 41.4175C204.433 41.7388 204.211 42.1216 204.047 42.5659C203.89 43.0034 203.811 43.4785 203.811 43.9912V50H202.499V39.5H203.811V41.3252H203.852C204.631 39.9443 205.804 39.2539 207.369 39.2539C208.518 39.2539 209.393 39.6265 209.994 40.3716C210.596 41.1167 210.896 42.1934 210.896 43.6016V50H209.584Z" fill="#4F4F4F"/>
</svg>
