<svg width="215" height="229" viewBox="0 0 215 229" fill="none" xmlns="http://www.w3.org/2000/svg">
<rect x="1" y="1" width="213" height="227" rx="3" fill="white" stroke="#828282" stroke-width="2"/>
<path fill-rule="evenodd" clip-rule="evenodd" d="M107.499 25.916C80.1294 25.916 57.916 48.1294 57.916 75.4994C57.916 102.869 80.1294 125.083 107.499 125.083C134.869 125.083 157.083 102.869 157.083 75.4994C157.083 48.1294 134.869 25.916 107.499 25.916ZM83.0546 106.638C85.1866 102.175 98.1775 97.8119 107.499 97.8119C116.821 97.8119 129.861 102.175 131.944 106.638C125.2 111.993 116.722 115.166 107.499 115.166C98.2766 115.166 89.7979 111.993 83.0546 106.638ZM107.499 87.8952C114.739 87.8952 131.944 90.8206 139.034 99.4481C144.092 92.8039 147.166 84.5235 147.166 75.4994C147.166 53.6331 129.366 35.8327 107.499 35.8327C85.6331 35.8327 67.8327 53.6331 67.8327 75.4994C67.8327 84.5235 70.9068 92.8039 75.9643 99.4481C83.0548 90.8206 100.26 87.8952 107.499 87.8952ZM107.499 45.7493C97.8802 45.7493 90.1452 53.4843 90.1452 63.1035C90.1452 72.7227 97.8802 80.4577 107.499 80.4577C117.119 80.4577 124.854 72.7227 124.854 63.1035C124.854 53.4843 117.119 45.7493 107.499 45.7493ZM100.062 63.1035C100.062 67.2189 103.384 70.541 107.499 70.541C111.615 70.541 114.937 67.2189 114.937 63.1035C114.937 58.9881 111.615 55.666 107.499 55.666C103.384 55.666 100.062 58.9881 100.062 63.1035Z" fill="#828282"/>
<path d="M85.792 178.457C84.6572 178.99 83.3618 179.256 81.9058 179.256C80.8667 179.256 79.9233 179.075 79.0757 178.713C78.228 178.344 77.5034 177.834 76.9019 177.185C76.3071 176.536 75.8457 175.763 75.5176 174.868C75.1963 173.972 75.0356 172.995 75.0356 171.935C75.0356 170.821 75.2065 169.785 75.5483 168.828C75.897 167.864 76.3926 167.03 77.0352 166.326C77.6777 165.615 78.4536 165.058 79.3628 164.655C80.2788 164.251 81.3042 164.05 82.439 164.05C83.6899 164.05 84.8076 164.241 85.792 164.624V166.08C84.7393 165.554 83.6147 165.291 82.4185 165.291C81.4683 165.291 80.624 165.455 79.8857 165.783C79.1475 166.111 78.5254 166.569 78.0195 167.157C77.5137 167.738 77.1274 168.428 76.8608 169.228C76.5942 170.021 76.4609 170.889 76.4609 171.833C76.4609 172.68 76.5806 173.48 76.8198 174.232C77.0591 174.977 77.4111 175.63 77.876 176.19C78.3477 176.751 78.9321 177.195 79.6294 177.523C80.3267 177.852 81.1367 178.016 82.0596 178.016C83.4746 178.016 84.7188 177.718 85.792 177.124V178.457ZM89.3604 165.844C89.1074 165.844 88.8887 165.755 88.7041 165.578C88.5195 165.4 88.4272 165.174 88.4272 164.901C88.4272 164.634 88.5195 164.416 88.7041 164.245C88.8887 164.067 89.1074 163.978 89.3604 163.978C89.4902 163.978 89.6133 164.002 89.7295 164.05C89.8457 164.091 89.9448 164.152 90.0269 164.234C90.1157 164.316 90.1841 164.416 90.2319 164.532C90.2866 164.641 90.314 164.764 90.314 164.901C90.314 165.031 90.29 165.154 90.2422 165.27C90.1943 165.386 90.126 165.489 90.0371 165.578C89.9482 165.66 89.8457 165.725 89.7295 165.772C89.6201 165.82 89.4971 165.844 89.3604 165.844ZM88.7144 179V168.5H90.0269V179H88.7144ZM97.9224 178.877C97.4712 179.103 96.979 179.215 96.4458 179.215C94.7505 179.215 93.9028 178.238 93.9028 176.283V169.648H92.0571V168.5H93.9028V165.854L95.2153 165.424V168.5H97.9224V169.648H95.2153V176.078C95.2153 176.789 95.3315 177.301 95.564 177.616C95.7964 177.93 96.1895 178.087 96.7432 178.087C97.1533 178.087 97.5464 177.964 97.9224 177.718V178.877ZM104.229 179.246C103.449 179.246 102.749 179.116 102.126 178.856C101.511 178.597 100.985 178.231 100.547 177.759C100.11 177.281 99.7749 176.71 99.5425 176.047C99.3101 175.384 99.1938 174.649 99.1938 173.842C99.1938 172.967 99.3169 172.185 99.563 171.494C99.8091 170.804 100.158 170.219 100.609 169.741C101.067 169.255 101.617 168.886 102.26 168.633C102.902 168.38 103.62 168.254 104.413 168.254C105.172 168.254 105.855 168.38 106.464 168.633C107.072 168.879 107.588 169.238 108.012 169.71C108.436 170.182 108.761 170.756 108.986 171.433C109.212 172.109 109.325 172.878 109.325 173.74C109.325 174.56 109.205 175.309 108.966 175.985C108.733 176.655 108.398 177.233 107.961 177.718C107.523 178.204 106.99 178.58 106.361 178.846C105.732 179.113 105.021 179.246 104.229 179.246ZM104.331 169.392C103.757 169.392 103.237 169.491 102.772 169.689C102.308 169.888 101.908 170.178 101.573 170.561C101.245 170.937 100.992 171.402 100.814 171.956C100.636 172.502 100.547 173.125 100.547 173.822C100.547 174.478 100.636 175.069 100.814 175.596C100.992 176.122 101.241 176.573 101.562 176.949C101.891 177.325 102.287 177.616 102.752 177.821C103.217 178.019 103.736 178.118 104.311 178.118C104.898 178.118 105.418 178.022 105.869 177.831C106.32 177.633 106.703 177.349 107.018 176.98C107.332 176.604 107.568 176.146 107.725 175.606C107.889 175.066 107.971 174.451 107.971 173.76C107.971 172.345 107.657 171.265 107.028 170.52C106.399 169.768 105.5 169.392 104.331 169.392ZM115.016 180.907C114.605 181.933 114.134 182.691 113.601 183.184C113.067 183.683 112.421 183.932 111.663 183.932C111.287 183.932 110.969 183.888 110.709 183.799V182.568C110.859 182.623 111.01 182.664 111.16 182.691C111.317 182.719 111.475 182.732 111.632 182.732C112.062 182.732 112.435 182.596 112.75 182.322C113.071 182.056 113.348 181.649 113.58 181.102L114.493 178.949L110.453 168.5H111.909L114.913 176.816C114.954 176.925 114.992 177.052 115.026 177.195C115.067 177.332 115.104 177.469 115.139 177.605H115.19C115.224 177.489 115.255 177.373 115.282 177.257C115.316 177.134 115.361 177 115.416 176.857L118.604 168.5H119.989L115.016 180.907ZM122.337 173.986C122.344 174.628 122.429 175.206 122.593 175.719C122.757 176.231 122.993 176.666 123.301 177.021C123.608 177.376 123.981 177.65 124.418 177.841C124.863 178.026 125.362 178.118 125.916 178.118C127.098 178.118 128.216 177.705 129.269 176.877V178.169C128.264 178.887 127.047 179.246 125.618 179.246C124.914 179.246 124.275 179.123 123.701 178.877C123.126 178.631 122.638 178.275 122.234 177.811C121.831 177.339 121.52 176.761 121.301 176.078C121.083 175.394 120.973 174.615 120.973 173.74C120.973 172.954 121.093 172.226 121.332 171.556C121.571 170.886 121.903 170.308 122.327 169.823C122.75 169.331 123.253 168.948 123.834 168.674C124.415 168.394 125.051 168.254 125.741 168.254C126.418 168.254 127.016 168.374 127.536 168.613C128.055 168.845 128.489 169.18 128.838 169.618C129.193 170.055 129.463 170.588 129.648 171.217C129.833 171.846 129.925 172.55 129.925 173.33V173.986H122.337ZM128.571 172.837C128.551 171.744 128.291 170.896 127.792 170.294C127.293 169.693 126.599 169.392 125.71 169.392C125.266 169.392 124.853 169.471 124.47 169.628C124.094 169.785 123.762 170.014 123.475 170.315C123.188 170.609 122.949 170.971 122.757 171.402C122.573 171.826 122.443 172.304 122.368 172.837H128.571ZM139.584 179V172.95C139.584 170.578 138.723 169.392 137 169.392C136.542 169.392 136.118 169.484 135.729 169.669C135.339 169.847 135 170.096 134.713 170.417C134.433 170.739 134.211 171.122 134.047 171.566C133.89 172.003 133.811 172.479 133.811 172.991V179H132.499V168.5H133.811V170.325H133.852C134.631 168.944 135.804 168.254 137.369 168.254C138.518 168.254 139.393 168.626 139.994 169.372C140.596 170.117 140.896 171.193 140.896 172.602V179H139.584Z" fill="#4F4F4F"/>
</svg>
