<svg width="330" height="84" viewBox="0 0 330 84" fill="none" xmlns="http://www.w3.org/2000/svg">
<rect x="1" y="1" width="328" height="82" rx="3" fill="white" stroke="#828282" stroke-width="2"/>
<path fill-rule="evenodd" clip-rule="evenodd" d="M70.7506 8.66602H32.2507C28.7215 8.66602 25.834 11.666 25.834 15.3327V68.666C25.834 72.3327 28.7215 75.3327 32.2507 75.3327H70.7506C74.2798 75.3327 77.1673 72.3327 77.1673 68.666V15.3327C77.1673 11.666 74.2798 8.66602 70.7506 8.66602ZM41.8757 15.3327H48.2923V31.9993L45.084 29.4993L41.8757 31.9993V15.3327ZM32.2507 68.666H70.7506V15.3327H54.709V45.3327L45.084 37.8327L35.459 45.3327V15.3327H32.2507V68.666Z" fill="#828282"/>
<path d="M114.802 61.3877C113.308 59.6592 112.561 57.5303 112.561 55.001C112.561 52.4082 113.312 50.2402 114.816 48.4971H115.717C114.189 50.3037 113.425 52.4668 113.425 54.9863C113.425 57.4277 114.182 59.5615 115.695 61.3877H114.802ZM121.408 59V57.667H121.379C121.135 58.1455 120.8 58.5166 120.375 58.7803C119.956 59.0439 119.479 59.1758 118.947 59.1758C118.586 59.1758 118.259 59.1245 117.966 59.022C117.678 58.9194 117.431 58.7754 117.226 58.5898C117.026 58.3994 116.87 58.1724 116.757 57.9087C116.65 57.645 116.596 57.3545 116.596 57.0371C116.596 56.3584 116.806 55.8188 117.226 55.4185C117.646 55.0132 118.281 54.7495 119.13 54.6274L121.408 54.2979C121.408 52.8574 120.849 52.1372 119.731 52.1372C118.857 52.1372 118.046 52.457 117.299 53.0967V52.0713C117.456 51.959 117.631 51.8589 117.827 51.771C118.027 51.6782 118.237 51.6001 118.457 51.5366C118.676 51.4683 118.901 51.417 119.13 51.3828C119.365 51.3438 119.592 51.3242 119.812 51.3242C120.646 51.3242 121.276 51.5586 121.701 52.0273C122.131 52.4961 122.346 53.1943 122.346 54.1221V59H121.408ZM119.475 55.3599C119.138 55.4087 118.85 55.4697 118.61 55.543C118.371 55.6162 118.173 55.7163 118.017 55.8433C117.861 55.9653 117.746 56.1191 117.673 56.3047C117.6 56.4854 117.563 56.71 117.563 56.9785C117.563 57.1787 117.597 57.3643 117.666 57.5352C117.739 57.7061 117.841 57.855 117.973 57.9819C118.11 58.104 118.273 58.1992 118.464 58.2676C118.659 58.3359 118.879 58.3701 119.123 58.3701C119.455 58.3701 119.76 58.3066 120.039 58.1797C120.317 58.0527 120.556 57.877 120.756 57.6523C120.961 57.4277 121.12 57.1592 121.232 56.8467C121.35 56.5342 121.408 56.1948 121.408 55.8286V55.0889L119.475 55.3599ZM127.275 59H126.381L123.51 51.5H124.543L126.616 57.2129C126.743 57.5596 126.823 57.8647 126.857 58.1284H126.887C126.945 57.7769 127.021 57.4814 127.114 57.2422L129.26 51.5H130.263L127.275 59ZM131.948 55.4185C131.953 55.8774 132.014 56.29 132.131 56.6562C132.248 57.0225 132.417 57.3325 132.636 57.5864C132.856 57.8403 133.122 58.0356 133.435 58.1724C133.752 58.3042 134.108 58.3701 134.504 58.3701C135.349 58.3701 136.147 58.0747 136.899 57.4839V58.4067C136.181 58.9194 135.312 59.1758 134.292 59.1758C133.789 59.1758 133.332 59.0879 132.922 58.9121C132.512 58.7363 132.163 58.4824 131.875 58.1504C131.586 57.8135 131.364 57.4009 131.208 56.9126C131.052 56.4243 130.974 55.8677 130.974 55.2427C130.974 54.6812 131.059 54.1611 131.23 53.6826C131.401 53.2041 131.638 52.7915 131.94 52.4448C132.243 52.0933 132.602 51.8198 133.017 51.6245C133.432 51.4243 133.886 51.3242 134.379 51.3242C134.863 51.3242 135.29 51.4097 135.661 51.5806C136.032 51.7466 136.342 51.9858 136.591 52.2983C136.845 52.6108 137.038 52.9917 137.17 53.4409C137.302 53.8901 137.368 54.3931 137.368 54.9497V55.4185H131.948ZM136.401 54.5981C136.386 53.8169 136.201 53.2114 135.844 52.7817C135.488 52.3521 134.992 52.1372 134.357 52.1372C134.04 52.1372 133.745 52.1934 133.471 52.3057C133.203 52.418 132.966 52.5815 132.761 52.7964C132.556 53.0063 132.385 53.2651 132.248 53.5728C132.116 53.8755 132.023 54.2173 131.97 54.5981H136.401ZM144.194 58.6631C143.637 59 142.963 59.1733 142.172 59.1831C141.635 59.188 141.152 59.0952 140.722 58.9048C140.292 58.7144 139.926 58.4507 139.624 58.1138C139.321 57.772 139.089 57.3716 138.928 56.9126C138.767 56.4487 138.686 55.9458 138.686 55.4038C138.686 54.8423 138.771 54.3149 138.942 53.8218C139.113 53.3237 139.362 52.8916 139.689 52.5254C140.017 52.1543 140.417 51.8613 140.891 51.6465C141.364 51.4316 141.906 51.3242 142.517 51.3242C143.137 51.3242 143.703 51.4438 144.216 51.6831V52.6792C143.669 52.3179 143.078 52.1372 142.443 52.1372C141.999 52.1372 141.604 52.2227 141.257 52.3936C140.91 52.5596 140.617 52.7891 140.378 53.082C140.144 53.3701 139.963 53.7095 139.836 54.1001C139.714 54.4858 139.653 54.896 139.653 55.3306C139.653 55.731 139.704 56.1143 139.807 56.4805C139.914 56.8467 140.075 57.1714 140.29 57.4546C140.51 57.7329 140.786 57.9551 141.118 58.1211C141.45 58.2871 141.84 58.3701 142.29 58.3701C142.993 58.3701 143.627 58.1602 144.194 57.7402V58.6631ZM151.247 49.3906V53.3457H155.085V54.2319H151.247V59H150.273V48.4971H155.393V49.3906H151.247ZM160.988 52.4595C160.769 52.2983 160.485 52.2178 160.139 52.2178C159.89 52.2178 159.67 52.2666 159.479 52.3643C159.289 52.457 159.121 52.584 158.974 52.7451C158.833 52.9062 158.71 53.0942 158.608 53.3091C158.51 53.519 158.43 53.7388 158.366 53.9683C158.308 54.1978 158.264 54.4297 158.234 54.6641C158.21 54.8984 158.198 55.1206 158.198 55.3306V59H157.268V51.5H158.198V53.104H158.227C158.315 52.8306 158.425 52.5864 158.557 52.3716C158.693 52.1519 158.85 51.9688 159.025 51.8223C159.201 51.6709 159.392 51.5562 159.597 51.478C159.807 51.3999 160.026 51.3608 160.256 51.3608C160.407 51.3608 160.542 51.3706 160.659 51.3901C160.781 51.4097 160.891 51.439 160.988 51.478V52.4595ZM166.672 59V57.667H166.643C166.398 58.1455 166.064 58.5166 165.639 58.7803C165.219 59.0439 164.743 59.1758 164.211 59.1758C163.85 59.1758 163.522 59.1245 163.229 59.022C162.941 58.9194 162.695 58.7754 162.49 58.5898C162.29 58.3994 162.133 58.1724 162.021 57.9087C161.914 57.645 161.86 57.3545 161.86 57.0371C161.86 56.3584 162.07 55.8188 162.49 55.4185C162.91 55.0132 163.544 54.7495 164.394 54.6274L166.672 54.2979C166.672 52.8574 166.113 52.1372 164.995 52.1372C164.121 52.1372 163.31 52.457 162.563 53.0967V52.0713C162.719 51.959 162.895 51.8589 163.09 51.771C163.291 51.6782 163.5 51.6001 163.72 51.5366C163.94 51.4683 164.165 51.417 164.394 51.3828C164.628 51.3438 164.855 51.3242 165.075 51.3242C165.91 51.3242 166.54 51.5586 166.965 52.0273C167.395 52.4961 167.609 53.1943 167.609 54.1221V59H166.672ZM164.738 55.3599C164.401 55.4087 164.113 55.4697 163.874 55.543C163.635 55.6162 163.437 55.7163 163.281 55.8433C163.125 55.9653 163.01 56.1191 162.937 56.3047C162.863 56.4854 162.827 56.71 162.827 56.9785C162.827 57.1787 162.861 57.3643 162.929 57.5352C163.002 57.7061 163.105 57.855 163.237 57.9819C163.374 58.104 163.537 58.1992 163.728 58.2676C163.923 58.3359 164.143 58.3701 164.387 58.3701C164.719 58.3701 165.024 58.3066 165.302 58.1797C165.581 58.0527 165.82 57.877 166.02 57.6523C166.225 57.4277 166.384 57.1592 166.496 56.8467C166.613 56.5342 166.672 56.1948 166.672 55.8286V55.0889L164.738 55.3599ZM174.926 59V54.6787C174.926 52.9844 174.311 52.1372 173.081 52.1372C172.753 52.1372 172.451 52.2031 172.172 52.335C171.894 52.4619 171.652 52.6401 171.447 52.8696C171.247 53.0991 171.088 53.3726 170.971 53.6899C170.859 54.0024 170.803 54.3418 170.803 54.708V59H169.865V51.5H170.803V52.8037H170.832C171.389 51.8174 172.226 51.3242 173.344 51.3242C174.165 51.3242 174.79 51.5903 175.219 52.1226C175.649 52.6548 175.864 53.4238 175.864 54.4297V59H174.926ZM183.115 58.6631C182.558 59 181.884 59.1733 181.093 59.1831C180.556 59.188 180.073 59.0952 179.643 58.9048C179.213 58.7144 178.847 58.4507 178.544 58.1138C178.242 57.772 178.01 57.3716 177.849 56.9126C177.688 56.4487 177.607 55.9458 177.607 55.4038C177.607 54.8423 177.692 54.3149 177.863 53.8218C178.034 53.3237 178.283 52.8916 178.61 52.5254C178.938 52.1543 179.338 51.8613 179.812 51.6465C180.285 51.4316 180.827 51.3242 181.438 51.3242C182.058 51.3242 182.624 51.4438 183.137 51.6831V52.6792C182.59 52.3179 181.999 52.1372 181.364 52.1372C180.92 52.1372 180.524 52.2227 180.178 52.3936C179.831 52.5596 179.538 52.7891 179.299 53.082C179.064 53.3701 178.884 53.7095 178.757 54.1001C178.635 54.4858 178.574 54.896 178.574 55.3306C178.574 55.731 178.625 56.1143 178.728 56.4805C178.835 56.8467 178.996 57.1714 179.211 57.4546C179.431 57.7329 179.707 57.9551 180.039 58.1211C180.371 58.2871 180.761 58.3701 181.21 58.3701C181.914 58.3701 182.548 58.1602 183.115 57.7402V58.6631ZM185.371 55.4185C185.375 55.8774 185.437 56.29 185.554 56.6562C185.671 57.0225 185.839 57.3325 186.059 57.5864C186.279 57.8403 186.545 58.0356 186.857 58.1724C187.175 58.3042 187.531 58.3701 187.927 58.3701C188.771 58.3701 189.57 58.0747 190.322 57.4839V58.4067C189.604 58.9194 188.735 59.1758 187.714 59.1758C187.211 59.1758 186.755 59.0879 186.345 58.9121C185.935 58.7363 185.585 58.4824 185.297 58.1504C185.009 57.8135 184.787 57.4009 184.631 56.9126C184.475 56.4243 184.396 55.8677 184.396 55.2427C184.396 54.6812 184.482 54.1611 184.653 53.6826C184.824 53.2041 185.061 52.7915 185.363 52.4448C185.666 52.0933 186.025 51.8198 186.44 51.6245C186.855 51.4243 187.309 51.3242 187.802 51.3242C188.286 51.3242 188.713 51.4097 189.084 51.5806C189.455 51.7466 189.765 51.9858 190.014 52.2983C190.268 52.6108 190.461 52.9917 190.593 53.4409C190.725 53.8901 190.791 54.3931 190.791 54.9497V55.4185H185.371ZM189.824 54.5981C189.809 53.8169 189.624 53.2114 189.267 52.7817C188.911 52.3521 188.415 52.1372 187.78 52.1372C187.463 52.1372 187.167 52.1934 186.894 52.3057C186.625 52.418 186.389 52.5815 186.184 52.7964C185.979 53.0063 185.808 53.2651 185.671 53.5728C185.539 53.8755 185.446 54.2173 185.393 54.5981H189.824ZM199.843 58.6118C199.033 58.9927 198.107 59.1831 197.067 59.1831C196.325 59.1831 195.651 59.0537 195.046 58.7949C194.44 58.5312 193.923 58.1675 193.493 57.7036C193.068 57.2397 192.739 56.688 192.504 56.0483C192.275 55.4087 192.16 54.7104 192.16 53.9536C192.16 53.1577 192.282 52.418 192.526 51.7344C192.775 51.0459 193.129 50.4502 193.588 49.9473C194.047 49.4395 194.602 49.0415 195.251 48.7534C195.905 48.4653 196.638 48.3213 197.448 48.3213C198.342 48.3213 199.14 48.458 199.843 48.7314V49.7715C199.091 49.3955 198.288 49.2075 197.434 49.2075C196.755 49.2075 196.152 49.3247 195.625 49.5591C195.097 49.7935 194.653 50.1206 194.292 50.5405C193.93 50.9556 193.654 51.4487 193.464 52.02C193.273 52.5864 193.178 53.2065 193.178 53.8804C193.178 54.4858 193.264 55.0571 193.435 55.5942C193.605 56.1265 193.857 56.5928 194.189 56.9932C194.526 57.3936 194.943 57.7109 195.441 57.9453C195.939 58.1797 196.518 58.2969 197.177 58.2969C198.188 58.2969 199.077 58.0845 199.843 57.6597V58.6118ZM205 59.1758C204.443 59.1758 203.942 59.083 203.498 58.8975C203.059 58.7119 202.683 58.4507 202.37 58.1138C202.058 57.772 201.818 57.3643 201.652 56.8906C201.486 56.417 201.403 55.8921 201.403 55.3159C201.403 54.6909 201.491 54.1318 201.667 53.6387C201.843 53.1455 202.092 52.728 202.414 52.3862C202.741 52.0396 203.134 51.7759 203.593 51.5952C204.052 51.4146 204.565 51.3242 205.131 51.3242C205.673 51.3242 206.162 51.4146 206.596 51.5952C207.031 51.771 207.399 52.0273 207.702 52.3643C208.005 52.7012 208.237 53.1113 208.398 53.5947C208.559 54.0781 208.64 54.6274 208.64 55.2427C208.64 55.8286 208.554 56.3633 208.383 56.8467C208.217 57.3252 207.978 57.7378 207.666 58.0845C207.353 58.4312 206.972 58.6997 206.523 58.8901C206.074 59.0806 205.566 59.1758 205 59.1758ZM205.073 52.1372C204.663 52.1372 204.292 52.208 203.959 52.3496C203.627 52.4912 203.342 52.6987 203.103 52.9722C202.868 53.2407 202.688 53.5728 202.561 53.9683C202.434 54.3589 202.37 54.8032 202.37 55.3013C202.37 55.77 202.434 56.1924 202.561 56.5684C202.688 56.9443 202.866 57.2666 203.095 57.5352C203.33 57.8037 203.613 58.0112 203.945 58.1577C204.277 58.2993 204.648 58.3701 205.058 58.3701C205.478 58.3701 205.849 58.3018 206.171 58.165C206.494 58.0234 206.767 57.8208 206.992 57.5571C207.216 57.2886 207.385 56.9614 207.497 56.5757C207.614 56.1899 207.673 55.7505 207.673 55.2573C207.673 54.2466 207.448 53.4751 206.999 52.9429C206.55 52.4058 205.908 52.1372 205.073 52.1372ZM215.59 59V54.6787C215.59 52.9844 214.975 52.1372 213.745 52.1372C213.417 52.1372 213.115 52.2031 212.836 52.335C212.558 52.4619 212.316 52.6401 212.111 52.8696C211.911 53.0991 211.752 53.3726 211.635 53.6899C211.523 54.0024 211.467 54.3418 211.467 54.708V59H210.529V51.5H211.467V52.8037H211.496C212.053 51.8174 212.89 51.3242 214.008 51.3242C214.829 51.3242 215.454 51.5903 215.883 52.1226C216.313 52.6548 216.528 53.4238 216.528 54.4297V59H215.59ZM223.852 59V54.6787C223.852 52.9844 223.237 52.1372 222.006 52.1372C221.679 52.1372 221.376 52.2031 221.098 52.335C220.82 52.4619 220.578 52.6401 220.373 52.8696C220.173 53.0991 220.014 53.3726 219.897 53.6899C219.785 54.0024 219.729 54.3418 219.729 54.708V59H218.791V51.5H219.729V52.8037H219.758C220.314 51.8174 221.152 51.3242 222.27 51.3242C223.09 51.3242 223.715 51.5903 224.145 52.1226C224.575 52.6548 224.79 53.4238 224.79 54.4297V59H223.852ZM227.5 55.4185C227.504 55.8774 227.565 56.29 227.683 56.6562C227.8 57.0225 227.968 57.3325 228.188 57.5864C228.408 57.8403 228.674 58.0356 228.986 58.1724C229.304 58.3042 229.66 58.3701 230.056 58.3701C230.9 58.3701 231.699 58.0747 232.451 57.4839V58.4067C231.733 58.9194 230.864 59.1758 229.843 59.1758C229.34 59.1758 228.884 59.0879 228.474 58.9121C228.063 58.7363 227.714 58.4824 227.426 58.1504C227.138 57.8135 226.916 57.4009 226.76 56.9126C226.604 56.4243 226.525 55.8677 226.525 55.2427C226.525 54.6812 226.611 54.1611 226.782 53.6826C226.953 53.2041 227.189 52.7915 227.492 52.4448C227.795 52.0933 228.154 51.8198 228.569 51.6245C228.984 51.4243 229.438 51.3242 229.931 51.3242C230.415 51.3242 230.842 51.4097 231.213 51.5806C231.584 51.7466 231.894 51.9858 232.143 52.2983C232.397 52.6108 232.59 52.9917 232.722 53.4409C232.854 53.8901 232.919 54.3931 232.919 54.9497V55.4185H227.5ZM231.953 54.5981C231.938 53.8169 231.752 53.2114 231.396 52.7817C231.04 52.3521 230.544 52.1372 229.909 52.1372C229.592 52.1372 229.296 52.1934 229.023 52.3057C228.754 52.418 228.518 52.5815 228.312 52.7964C228.107 53.0063 227.937 53.2651 227.8 53.5728C227.668 53.8755 227.575 54.2173 227.521 54.5981H231.953ZM239.746 58.6631C239.189 59 238.515 59.1733 237.724 59.1831C237.187 59.188 236.704 59.0952 236.274 58.9048C235.844 58.7144 235.478 58.4507 235.175 58.1138C234.873 57.772 234.641 57.3716 234.479 56.9126C234.318 56.4487 234.238 55.9458 234.238 55.4038C234.238 54.8423 234.323 54.3149 234.494 53.8218C234.665 53.3237 234.914 52.8916 235.241 52.5254C235.568 52.1543 235.969 51.8613 236.442 51.6465C236.916 51.4316 237.458 51.3242 238.068 51.3242C238.688 51.3242 239.255 51.4438 239.768 51.6831V52.6792C239.221 52.3179 238.63 52.1372 237.995 52.1372C237.551 52.1372 237.155 52.2227 236.809 52.3936C236.462 52.5596 236.169 52.7891 235.93 53.082C235.695 53.3701 235.515 53.7095 235.388 54.1001C235.266 54.4858 235.205 54.896 235.205 55.3306C235.205 55.731 235.256 56.1143 235.358 56.4805C235.466 56.8467 235.627 57.1714 235.842 57.4546C236.062 57.7329 236.337 57.9551 236.669 58.1211C237.001 58.2871 237.392 58.3701 237.841 58.3701C238.544 58.3701 239.179 58.1602 239.746 57.7402V58.6631ZM244.777 58.9121C244.455 59.0732 244.104 59.1538 243.723 59.1538C242.512 59.1538 241.906 58.4556 241.906 57.0591V52.3203H240.588V51.5H241.906V49.6104L242.844 49.3027V51.5H244.777V52.3203H242.844V56.9126C242.844 57.4204 242.927 57.7866 243.093 58.0112C243.259 58.2358 243.54 58.3481 243.935 58.3481C244.228 58.3481 244.509 58.2603 244.777 58.0845V58.9121ZM245.305 61.3877C246.818 59.5615 247.575 57.4277 247.575 54.9863C247.575 52.4668 246.811 50.3037 245.283 48.4971H246.184C247.688 50.2402 248.439 52.4082 248.439 55.001C248.439 57.5303 247.692 59.6592 246.198 61.3877H245.305Z" fill="#4F4F4F"/>
<path d="M146.237 42V27.2959H153.404V28.5469H147.601V33.9404H152.974V35.1709H147.601V40.7593H153.732V42H146.237ZM161.095 41.877C160.644 42.1025 160.151 42.2153 159.618 42.2153C157.923 42.2153 157.075 41.2378 157.075 39.2827V32.6484H155.229V31.5H157.075V28.8545L158.388 28.4238V31.5H161.095V32.6484H158.388V39.0776C158.388 39.7886 158.504 40.3013 158.736 40.6157C158.969 40.9302 159.362 41.0874 159.916 41.0874C160.326 41.0874 160.719 40.9644 161.095 40.7183V41.877ZM170.139 42V40.2158H170.098C169.387 41.5693 168.283 42.2461 166.786 42.2461C164.291 42.2461 163.043 40.7217 163.043 37.6729V31.5H164.355V37.4268C164.355 38.6846 164.578 39.6143 165.022 40.2158C165.473 40.8174 166.16 41.1182 167.083 41.1182C167.534 41.1182 167.944 41.0327 168.313 40.8618C168.689 40.6841 169.011 40.438 169.277 40.1235C169.551 39.8022 169.763 39.4194 169.913 38.9751C170.063 38.5308 170.139 38.0386 170.139 37.4985V31.5H171.451V42H170.139ZM182.197 42V40.1543H182.156C181.808 40.8174 181.309 41.3335 180.659 41.7026C180.017 42.0649 179.285 42.2461 178.465 42.2461C177.809 42.2461 177.21 42.1265 176.67 41.8872C176.137 41.6411 175.679 41.2891 175.296 40.8311C174.914 40.373 174.616 39.8193 174.404 39.1699C174.199 38.5205 174.097 37.7856 174.097 36.9653C174.097 36.1177 174.209 35.3452 174.435 34.6479C174.667 33.9438 174.992 33.3423 175.409 32.8433C175.833 32.3374 176.339 31.9478 176.927 31.6743C177.521 31.394 178.181 31.2539 178.906 31.2539C180.417 31.2539 181.5 31.8589 182.156 33.0688H182.197V26.4551H183.51V42H182.197ZM182.197 35.6631C182.197 35.2051 182.119 34.7778 181.961 34.3813C181.804 33.9849 181.585 33.6396 181.305 33.3457C181.025 33.0518 180.687 32.8193 180.29 32.6484C179.9 32.4775 179.47 32.3921 178.998 32.3921C178.479 32.3921 178 32.4946 177.562 32.6997C177.125 32.9048 176.749 33.2021 176.435 33.5918C176.127 33.9746 175.884 34.4429 175.707 34.9966C175.536 35.5503 175.45 36.1792 175.45 36.8833C175.45 37.5464 175.529 38.1411 175.686 38.6675C175.843 39.1938 176.065 39.6382 176.353 40.0005C176.646 40.3628 176.995 40.6396 177.398 40.8311C177.802 41.0225 178.25 41.1182 178.742 41.1182C179.275 41.1182 179.753 41.0225 180.177 40.8311C180.608 40.6396 180.97 40.3765 181.264 40.0415C181.565 39.7065 181.794 39.3135 181.951 38.8623C182.115 38.4111 182.197 37.9292 182.197 37.4165V35.6631ZM187.54 28.8442C187.287 28.8442 187.068 28.7554 186.883 28.5776C186.699 28.3999 186.606 28.1743 186.606 27.9009C186.606 27.6343 186.699 27.4155 186.883 27.2446C187.068 27.0669 187.287 26.978 187.54 26.978C187.669 26.978 187.792 27.002 187.909 27.0498C188.025 27.0908 188.124 27.1523 188.206 27.2344C188.295 27.3164 188.363 27.4155 188.411 27.5317C188.466 27.6411 188.493 27.7642 188.493 27.9009C188.493 28.0308 188.469 28.1538 188.421 28.27C188.374 28.3862 188.305 28.4888 188.216 28.5776C188.127 28.6597 188.025 28.7246 187.909 28.7725C187.799 28.8203 187.676 28.8442 187.54 28.8442ZM186.894 42V31.5H188.206V42H186.894ZM197.64 42V40.1338H197.599C197.257 40.8037 196.789 41.3232 196.194 41.6924C195.606 42.0615 194.939 42.2461 194.194 42.2461C193.688 42.2461 193.23 42.1743 192.82 42.0308C192.417 41.8872 192.072 41.6855 191.785 41.4258C191.504 41.1592 191.286 40.8413 191.128 40.4722C190.978 40.103 190.903 39.6963 190.903 39.252C190.903 38.3018 191.197 37.5464 191.785 36.9858C192.373 36.4185 193.261 36.0493 194.451 35.8784L197.64 35.417C197.64 33.4004 196.857 32.3921 195.292 32.3921C194.068 32.3921 192.933 32.8398 191.887 33.7354V32.2998C192.106 32.1426 192.352 32.0024 192.625 31.8794C192.906 31.7495 193.2 31.6401 193.507 31.5513C193.815 31.4556 194.129 31.3838 194.451 31.3359C194.779 31.2812 195.097 31.2539 195.404 31.2539C196.573 31.2539 197.455 31.582 198.05 32.2383C198.651 32.8945 198.952 33.8721 198.952 35.1709V42H197.64ZM194.933 36.9038C194.461 36.9722 194.058 37.0576 193.723 37.1602C193.388 37.2627 193.111 37.4028 192.892 37.5806C192.673 37.7515 192.513 37.9668 192.41 38.2266C192.308 38.4795 192.256 38.7939 192.256 39.1699C192.256 39.4502 192.304 39.71 192.4 39.9492C192.502 40.1885 192.646 40.397 192.831 40.5747C193.022 40.7456 193.251 40.8789 193.518 40.9746C193.791 41.0703 194.099 41.1182 194.44 41.1182C194.905 41.1182 195.333 41.0293 195.722 40.8516C196.112 40.6738 196.447 40.4277 196.727 40.1133C197.014 39.7988 197.236 39.4229 197.394 38.9854C197.558 38.5479 197.64 38.0728 197.64 37.5601V36.5244L194.933 36.9038ZM209.196 42V35.9502C209.196 33.5781 208.334 32.3921 206.612 32.3921C206.154 32.3921 205.73 32.4844 205.34 32.6689C204.951 32.8467 204.612 33.0962 204.325 33.4175C204.045 33.7388 203.823 34.1216 203.659 34.5659C203.501 35.0034 203.423 35.4785 203.423 35.9912V42H202.11V31.5H203.423V33.3252H203.464C204.243 31.9443 205.416 31.2539 206.981 31.2539C208.129 31.2539 209.004 31.6265 209.606 32.3716C210.208 33.1167 210.508 34.1934 210.508 35.6016V42H209.196ZM218.188 41.877C217.737 42.1025 217.245 42.2153 216.712 42.2153C215.017 42.2153 214.169 41.2378 214.169 39.2827V32.6484H212.323V31.5H214.169V28.8545L215.481 28.4238V31.5H218.188V32.6484H215.481V39.0776C215.481 39.7886 215.598 40.3013 215.83 40.6157C216.062 40.9302 216.456 41.0874 217.009 41.0874C217.419 41.0874 217.812 40.9644 218.188 40.7183V41.877Z" fill="#4F4F4F"/>
</svg>
