<svg width="215" height="229" viewBox="0 0 215 229" fill="none" xmlns="http://www.w3.org/2000/svg">
<rect x="1" y="1" width="213" height="227" rx="3" fill="white" stroke="#828282" stroke-width="2"/>
<path fill-rule="evenodd" clip-rule="evenodd" d="M136.497 25.916H79.4996C74.2748 25.916 70 30.3785 70 35.8327V115.166C70 120.62 74.2748 125.083 79.4996 125.083H136.497C141.722 125.083 145.997 120.62 145.997 115.166V35.8327C145.997 30.3785 141.722 25.916 136.497 25.916ZM93.749 35.8327H103.249V60.6243L98.4988 56.9056L93.749 60.6243V35.8327ZM79.4996 115.166H136.497V35.8327H112.748V80.4577L98.4988 69.3014L84.2494 80.4577V35.8327H79.4996V115.166Z" fill="#828282"/>
<path d="M49.6606 196V194.667H49.6313C49.3872 195.146 49.0527 195.517 48.6279 195.78C48.208 196.044 47.7319 196.176 47.1997 196.176C46.8384 196.176 46.5112 196.125 46.2183 196.022C45.9302 195.919 45.6836 195.775 45.4785 195.59C45.2783 195.399 45.1221 195.172 45.0098 194.909C44.9023 194.645 44.8486 194.354 44.8486 194.037C44.8486 193.358 45.0586 192.819 45.4785 192.418C45.8984 192.013 46.5332 191.75 47.3828 191.627L49.6606 191.298C49.6606 189.857 49.1016 189.137 47.9834 189.137C47.1094 189.137 46.2988 189.457 45.5518 190.097V189.071C45.708 188.959 45.8838 188.859 46.0791 188.771C46.2793 188.678 46.4893 188.6 46.709 188.537C46.9287 188.468 47.1533 188.417 47.3828 188.383C47.6172 188.344 47.8442 188.324 48.064 188.324C48.8989 188.324 49.5288 188.559 49.9536 189.027C50.3833 189.496 50.5981 190.194 50.5981 191.122V196H49.6606ZM47.7271 192.36C47.3901 192.409 47.1021 192.47 46.8628 192.543C46.6235 192.616 46.4258 192.716 46.2695 192.843C46.1133 192.965 45.9985 193.119 45.9253 193.305C45.8521 193.485 45.8154 193.71 45.8154 193.979C45.8154 194.179 45.8496 194.364 45.918 194.535C45.9912 194.706 46.0938 194.855 46.2256 194.982C46.3623 195.104 46.5259 195.199 46.7163 195.268C46.9116 195.336 47.1313 195.37 47.3755 195.37C47.7075 195.37 48.0127 195.307 48.291 195.18C48.5693 195.053 48.8086 194.877 49.0088 194.652C49.2139 194.428 49.3726 194.159 49.4849 193.847C49.6021 193.534 49.6606 193.195 49.6606 192.829V192.089L47.7271 192.36ZM55.5273 196H54.6338L51.7627 188.5H52.7954L54.8682 194.213C54.9951 194.56 55.0757 194.865 55.1099 195.128H55.1392C55.1978 194.777 55.2734 194.481 55.3662 194.242L57.5122 188.5H58.5156L55.5273 196ZM60.2002 192.418C60.2051 192.877 60.2661 193.29 60.3833 193.656C60.5005 194.022 60.6689 194.333 60.8887 194.586C61.1084 194.84 61.3745 195.036 61.687 195.172C62.0044 195.304 62.3608 195.37 62.7563 195.37C63.6011 195.37 64.3994 195.075 65.1514 194.484V195.407C64.4336 195.919 63.5645 196.176 62.5439 196.176C62.041 196.176 61.5845 196.088 61.1743 195.912C60.7642 195.736 60.415 195.482 60.127 195.15C59.8389 194.813 59.6167 194.401 59.4604 193.913C59.3042 193.424 59.2261 192.868 59.2261 192.243C59.2261 191.681 59.3115 191.161 59.4824 190.683C59.6533 190.204 59.8901 189.792 60.1929 189.445C60.4956 189.093 60.8545 188.82 61.2695 188.625C61.6846 188.424 62.1387 188.324 62.6318 188.324C63.1152 188.324 63.5425 188.41 63.9136 188.581C64.2847 188.747 64.5947 188.986 64.8438 189.298C65.0977 189.611 65.2905 189.992 65.4224 190.441C65.5542 190.89 65.6201 191.393 65.6201 191.95V192.418H60.2002ZM64.6533 191.598C64.6387 190.817 64.4531 190.211 64.0967 189.782C63.7402 189.352 63.2446 189.137 62.6099 189.137C62.2925 189.137 61.9971 189.193 61.7236 189.306C61.4551 189.418 61.2183 189.582 61.0132 189.796C60.8081 190.006 60.6372 190.265 60.5005 190.573C60.3687 190.875 60.2759 191.217 60.2222 191.598H64.6533ZM72.4463 195.663C71.8896 196 71.2158 196.173 70.4248 196.183C69.8877 196.188 69.4043 196.095 68.9746 195.905C68.5449 195.714 68.1787 195.451 67.876 195.114C67.5732 194.772 67.3413 194.372 67.1802 193.913C67.019 193.449 66.9385 192.946 66.9385 192.404C66.9385 191.842 67.0239 191.315 67.1948 190.822C67.3657 190.324 67.6147 189.892 67.9419 189.525C68.269 189.154 68.6694 188.861 69.1431 188.646C69.6167 188.432 70.1587 188.324 70.769 188.324C71.3892 188.324 71.9556 188.444 72.4683 188.683V189.679C71.9214 189.318 71.3306 189.137 70.6958 189.137C70.2515 189.137 69.856 189.223 69.5093 189.394C69.1626 189.56 68.8696 189.789 68.6304 190.082C68.396 190.37 68.2153 190.709 68.0884 191.1C67.9663 191.486 67.9053 191.896 67.9053 192.331C67.9053 192.731 67.9565 193.114 68.0591 193.48C68.1665 193.847 68.3276 194.171 68.5425 194.455C68.7622 194.733 69.0381 194.955 69.3701 195.121C69.7021 195.287 70.0928 195.37 70.542 195.37C71.2451 195.37 71.8799 195.16 72.4463 194.74V195.663ZM79.4995 186.391V190.346H83.3374V191.232H79.4995V196H78.5254V185.497H83.645V186.391H79.4995ZM89.2407 189.459C89.021 189.298 88.7378 189.218 88.3911 189.218C88.1421 189.218 87.9224 189.267 87.7319 189.364C87.5415 189.457 87.373 189.584 87.2266 189.745C87.085 189.906 86.9629 190.094 86.8604 190.309C86.7627 190.519 86.6821 190.739 86.6187 190.968C86.5601 191.198 86.5161 191.43 86.4868 191.664C86.4624 191.898 86.4502 192.121 86.4502 192.331V196H85.52V188.5H86.4502V190.104H86.4795C86.5674 189.831 86.6772 189.586 86.8091 189.372C86.9458 189.152 87.1021 188.969 87.2778 188.822C87.4536 188.671 87.644 188.556 87.8491 188.478C88.0591 188.4 88.2788 188.361 88.5083 188.361C88.6597 188.361 88.7939 188.371 88.9111 188.39C89.0332 188.41 89.1431 188.439 89.2407 188.478V189.459ZM94.9243 196V194.667H94.895C94.6509 195.146 94.3164 195.517 93.8916 195.78C93.4717 196.044 92.9956 196.176 92.4634 196.176C92.1021 196.176 91.7749 196.125 91.4819 196.022C91.1938 195.919 90.9473 195.775 90.7422 195.59C90.542 195.399 90.3857 195.172 90.2734 194.909C90.166 194.645 90.1123 194.354 90.1123 194.037C90.1123 193.358 90.3223 192.819 90.7422 192.418C91.1621 192.013 91.7969 191.75 92.6465 191.627L94.9243 191.298C94.9243 189.857 94.3652 189.137 93.2471 189.137C92.373 189.137 91.5625 189.457 90.8154 190.097V189.071C90.9717 188.959 91.1475 188.859 91.3428 188.771C91.543 188.678 91.7529 188.6 91.9727 188.537C92.1924 188.468 92.417 188.417 92.6465 188.383C92.8809 188.344 93.1079 188.324 93.3276 188.324C94.1626 188.324 94.7925 188.559 95.2173 189.027C95.647 189.496 95.8618 190.194 95.8618 191.122V196H94.9243ZM92.9907 192.36C92.6538 192.409 92.3657 192.47 92.1265 192.543C91.8872 192.616 91.6895 192.716 91.5332 192.843C91.377 192.965 91.2622 193.119 91.189 193.305C91.1157 193.485 91.0791 193.71 91.0791 193.979C91.0791 194.179 91.1133 194.364 91.1816 194.535C91.2549 194.706 91.3574 194.855 91.4893 194.982C91.626 195.104 91.7896 195.199 91.98 195.268C92.1753 195.336 92.395 195.37 92.6392 195.37C92.9712 195.37 93.2764 195.307 93.5547 195.18C93.833 195.053 94.0723 194.877 94.2725 194.652C94.4775 194.428 94.6362 194.159 94.7485 193.847C94.8657 193.534 94.9243 193.195 94.9243 192.829V192.089L92.9907 192.36ZM103.179 196V191.679C103.179 189.984 102.563 189.137 101.333 189.137C101.006 189.137 100.703 189.203 100.425 189.335C100.146 189.462 99.9048 189.64 99.6997 189.87C99.4995 190.099 99.3408 190.373 99.2236 190.69C99.1113 191.002 99.0552 191.342 99.0552 191.708V196H98.1177V188.5H99.0552V189.804H99.0845C99.6411 188.817 100.479 188.324 101.597 188.324C102.417 188.324 103.042 188.59 103.472 189.123C103.901 189.655 104.116 190.424 104.116 191.43V196H103.179ZM111.367 195.663C110.811 196 110.137 196.173 109.346 196.183C108.809 196.188 108.325 196.095 107.896 195.905C107.466 195.714 107.1 195.451 106.797 195.114C106.494 194.772 106.262 194.372 106.101 193.913C105.94 193.449 105.859 192.946 105.859 192.404C105.859 191.842 105.945 191.315 106.116 190.822C106.287 190.324 106.536 189.892 106.863 189.525C107.19 189.154 107.59 188.861 108.064 188.646C108.538 188.432 109.08 188.324 109.69 188.324C110.31 188.324 110.876 188.444 111.389 188.683V189.679C110.842 189.318 110.251 189.137 109.617 189.137C109.172 189.137 108.777 189.223 108.43 189.394C108.083 189.56 107.791 189.789 107.551 190.082C107.317 190.37 107.136 190.709 107.009 191.1C106.887 191.486 106.826 191.896 106.826 192.331C106.826 192.731 106.877 193.114 106.98 193.48C107.087 193.847 107.249 194.171 107.463 194.455C107.683 194.733 107.959 194.955 108.291 195.121C108.623 195.287 109.014 195.37 109.463 195.37C110.166 195.37 110.801 195.16 111.367 194.74V195.663ZM113.623 192.418C113.628 192.877 113.689 193.29 113.806 193.656C113.923 194.022 114.092 194.333 114.312 194.586C114.531 194.84 114.797 195.036 115.11 195.172C115.427 195.304 115.784 195.37 116.179 195.37C117.024 195.37 117.822 195.075 118.574 194.484V195.407C117.856 195.919 116.987 196.176 115.967 196.176C115.464 196.176 115.007 196.088 114.597 195.912C114.187 195.736 113.838 195.482 113.55 195.15C113.262 194.813 113.04 194.401 112.883 193.913C112.727 193.424 112.649 192.868 112.649 192.243C112.649 191.681 112.734 191.161 112.905 190.683C113.076 190.204 113.313 189.792 113.616 189.445C113.918 189.093 114.277 188.82 114.692 188.625C115.107 188.424 115.562 188.324 116.055 188.324C116.538 188.324 116.965 188.41 117.336 188.581C117.708 188.747 118.018 188.986 118.267 189.298C118.521 189.611 118.713 189.992 118.845 190.441C118.977 190.89 119.043 191.393 119.043 191.95V192.418H113.623ZM118.076 191.598C118.062 190.817 117.876 190.211 117.52 189.782C117.163 189.352 116.667 189.137 116.033 189.137C115.715 189.137 115.42 189.193 115.146 189.306C114.878 189.418 114.641 189.582 114.436 189.796C114.231 190.006 114.06 190.265 113.923 190.573C113.792 190.875 113.699 191.217 113.645 191.598H118.076ZM125.869 195.663C125.312 196 124.639 196.173 123.848 196.183C123.311 196.188 122.827 196.095 122.397 195.905C121.968 195.714 121.602 195.451 121.299 195.114C120.996 194.772 120.764 194.372 120.603 193.913C120.442 193.449 120.361 192.946 120.361 192.404C120.361 191.842 120.447 191.315 120.618 190.822C120.789 190.324 121.038 189.892 121.365 189.525C121.692 189.154 122.092 188.861 122.566 188.646C123.04 188.432 123.582 188.324 124.192 188.324C124.812 188.324 125.378 188.444 125.891 188.683V189.679C125.344 189.318 124.753 189.137 124.119 189.137C123.674 189.137 123.279 189.223 122.932 189.394C122.585 189.56 122.292 189.789 122.053 190.082C121.819 190.37 121.638 190.709 121.511 191.1C121.389 191.486 121.328 191.896 121.328 192.331C121.328 192.731 121.379 193.114 121.482 193.48C121.589 193.847 121.75 194.171 121.965 194.455C122.185 194.733 122.461 194.955 122.793 195.121C123.125 195.287 123.516 195.37 123.965 195.37C124.668 195.37 125.303 195.16 125.869 194.74V195.663ZM130.747 196.176C130.19 196.176 129.69 196.083 129.246 195.897C128.806 195.712 128.43 195.451 128.118 195.114C127.805 194.772 127.566 194.364 127.4 193.891C127.234 193.417 127.151 192.892 127.151 192.316C127.151 191.691 127.239 191.132 127.415 190.639C127.59 190.146 127.839 189.728 128.162 189.386C128.489 189.04 128.882 188.776 129.341 188.595C129.8 188.415 130.312 188.324 130.879 188.324C131.421 188.324 131.909 188.415 132.344 188.595C132.778 188.771 133.147 189.027 133.45 189.364C133.752 189.701 133.984 190.111 134.146 190.595C134.307 191.078 134.387 191.627 134.387 192.243C134.387 192.829 134.302 193.363 134.131 193.847C133.965 194.325 133.726 194.738 133.413 195.084C133.101 195.431 132.72 195.7 132.271 195.89C131.821 196.081 131.313 196.176 130.747 196.176ZM130.82 189.137C130.41 189.137 130.039 189.208 129.707 189.35C129.375 189.491 129.089 189.699 128.85 189.972C128.616 190.241 128.435 190.573 128.308 190.968C128.181 191.359 128.118 191.803 128.118 192.301C128.118 192.77 128.181 193.192 128.308 193.568C128.435 193.944 128.613 194.267 128.843 194.535C129.077 194.804 129.36 195.011 129.692 195.158C130.024 195.299 130.396 195.37 130.806 195.37C131.226 195.37 131.597 195.302 131.919 195.165C132.241 195.023 132.515 194.821 132.739 194.557C132.964 194.289 133.132 193.961 133.245 193.576C133.362 193.19 133.42 192.75 133.42 192.257C133.42 191.247 133.196 190.475 132.747 189.943C132.297 189.406 131.655 189.137 130.82 189.137ZM141.338 196V191.679C141.338 189.984 140.723 189.137 139.492 189.137C139.165 189.137 138.862 189.203 138.584 189.335C138.306 189.462 138.064 189.64 137.859 189.87C137.659 190.099 137.5 190.373 137.383 190.69C137.271 191.002 137.214 191.342 137.214 191.708V196H136.277V188.5H137.214V189.804H137.244C137.8 188.817 138.638 188.324 139.756 188.324C140.576 188.324 141.201 188.59 141.631 189.123C142.061 189.655 142.275 190.424 142.275 191.43V196H141.338ZM149.6 196V191.679C149.6 189.984 148.984 189.137 147.754 189.137C147.427 189.137 147.124 189.203 146.846 189.335C146.567 189.462 146.326 189.64 146.121 189.87C145.92 190.099 145.762 190.373 145.645 190.69C145.532 191.002 145.476 191.342 145.476 191.708V196H144.539V188.5H145.476V189.804H145.505C146.062 188.817 146.899 188.324 148.018 188.324C148.838 188.324 149.463 188.59 149.893 189.123C150.322 189.655 150.537 190.424 150.537 191.43V196H149.6ZM153.247 192.418C153.252 192.877 153.313 193.29 153.43 193.656C153.547 194.022 153.716 194.333 153.936 194.586C154.155 194.84 154.421 195.036 154.734 195.172C155.051 195.304 155.408 195.37 155.803 195.37C156.648 195.37 157.446 195.075 158.198 194.484V195.407C157.48 195.919 156.611 196.176 155.591 196.176C155.088 196.176 154.631 196.088 154.221 195.912C153.811 195.736 153.462 195.482 153.174 195.15C152.886 194.813 152.664 194.401 152.507 193.913C152.351 193.424 152.273 192.868 152.273 192.243C152.273 191.681 152.358 191.161 152.529 190.683C152.7 190.204 152.937 189.792 153.24 189.445C153.542 189.093 153.901 188.82 154.316 188.625C154.731 188.424 155.186 188.324 155.679 188.324C156.162 188.324 156.589 188.41 156.96 188.581C157.332 188.747 157.642 188.986 157.891 189.298C158.145 189.611 158.337 189.992 158.469 190.441C158.601 190.89 158.667 191.393 158.667 191.95V192.418H153.247ZM157.7 191.598C157.686 190.817 157.5 190.211 157.144 189.782C156.787 189.352 156.292 189.137 155.657 189.137C155.339 189.137 155.044 189.193 154.771 189.306C154.502 189.418 154.265 189.582 154.06 189.796C153.855 190.006 153.684 190.265 153.547 190.573C153.416 190.875 153.323 191.217 153.269 191.598H157.7ZM165.493 195.663C164.937 196 164.263 196.173 163.472 196.183C162.935 196.188 162.451 196.095 162.021 195.905C161.592 195.714 161.226 195.451 160.923 195.114C160.62 194.772 160.388 194.372 160.227 193.913C160.066 193.449 159.985 192.946 159.985 192.404C159.985 191.842 160.071 191.315 160.242 190.822C160.413 190.324 160.662 189.892 160.989 189.525C161.316 189.154 161.716 188.861 162.19 188.646C162.664 188.432 163.206 188.324 163.816 188.324C164.436 188.324 165.002 188.444 165.515 188.683V189.679C164.968 189.318 164.377 189.137 163.743 189.137C163.298 189.137 162.903 189.223 162.556 189.394C162.209 189.56 161.917 189.789 161.677 190.082C161.443 190.37 161.262 190.709 161.135 191.1C161.013 191.486 160.952 191.896 160.952 192.331C160.952 192.731 161.003 193.114 161.106 193.48C161.213 193.847 161.375 194.171 161.589 194.455C161.809 194.733 162.085 194.955 162.417 195.121C162.749 195.287 163.14 195.37 163.589 195.37C164.292 195.37 164.927 195.16 165.493 194.74V195.663ZM170.525 195.912C170.203 196.073 169.851 196.154 169.47 196.154C168.259 196.154 167.654 195.456 167.654 194.059V189.32H166.335V188.5H167.654V186.61L168.591 186.303V188.5H170.525V189.32H168.591V193.913C168.591 194.42 168.674 194.787 168.84 195.011C169.006 195.236 169.287 195.348 169.683 195.348C169.976 195.348 170.256 195.26 170.525 195.084V195.912Z" fill="#4F4F4F"/>
<path d="M73.2368 179V164.296H80.4043V165.547H74.6006V170.94H79.9736V172.171H74.6006V177.759H80.7324V179H73.2368ZM88.0947 178.877C87.6436 179.103 87.1514 179.215 86.6182 179.215C84.9229 179.215 84.0752 178.238 84.0752 176.283V169.648H82.2295V168.5H84.0752V165.854L85.3877 165.424V168.5H88.0947V169.648H85.3877V176.078C85.3877 176.789 85.5039 177.301 85.7363 177.616C85.9688 177.93 86.3618 178.087 86.9155 178.087C87.3257 178.087 87.7188 177.964 88.0947 177.718V178.877ZM97.1387 179V177.216H97.0977C96.3867 178.569 95.2827 179.246 93.7856 179.246C91.2905 179.246 90.043 177.722 90.043 174.673V168.5H91.3555V174.427C91.3555 175.685 91.5776 176.614 92.022 177.216C92.4731 177.817 93.1602 178.118 94.083 178.118C94.5342 178.118 94.9443 178.033 95.3135 177.862C95.6895 177.684 96.0107 177.438 96.2773 177.124C96.5508 176.802 96.7627 176.419 96.9131 175.975C97.0635 175.531 97.1387 175.039 97.1387 174.499V168.5H98.4512V179H97.1387ZM109.197 179V177.154H109.156C108.808 177.817 108.309 178.333 107.659 178.703C107.017 179.065 106.285 179.246 105.465 179.246C104.809 179.246 104.21 179.126 103.67 178.887C103.137 178.641 102.679 178.289 102.296 177.831C101.914 177.373 101.616 176.819 101.404 176.17C101.199 175.521 101.097 174.786 101.097 173.965C101.097 173.118 101.209 172.345 101.435 171.648C101.667 170.944 101.992 170.342 102.409 169.843C102.833 169.337 103.339 168.948 103.927 168.674C104.521 168.394 105.181 168.254 105.906 168.254C107.417 168.254 108.5 168.859 109.156 170.069H109.197V163.455H110.51V179H109.197ZM109.197 172.663C109.197 172.205 109.119 171.778 108.961 171.381C108.804 170.985 108.585 170.64 108.305 170.346C108.025 170.052 107.687 169.819 107.29 169.648C106.9 169.478 106.47 169.392 105.998 169.392C105.479 169.392 105 169.495 104.562 169.7C104.125 169.905 103.749 170.202 103.435 170.592C103.127 170.975 102.884 171.443 102.707 171.997C102.536 172.55 102.45 173.179 102.45 173.883C102.45 174.546 102.529 175.141 102.686 175.667C102.843 176.194 103.065 176.638 103.353 177C103.646 177.363 103.995 177.64 104.398 177.831C104.802 178.022 105.25 178.118 105.742 178.118C106.275 178.118 106.753 178.022 107.177 177.831C107.608 177.64 107.97 177.376 108.264 177.042C108.565 176.707 108.794 176.313 108.951 175.862C109.115 175.411 109.197 174.929 109.197 174.417V172.663ZM114.54 165.844C114.287 165.844 114.068 165.755 113.883 165.578C113.699 165.4 113.606 165.174 113.606 164.901C113.606 164.634 113.699 164.416 113.883 164.245C114.068 164.067 114.287 163.978 114.54 163.978C114.669 163.978 114.792 164.002 114.909 164.05C115.025 164.091 115.124 164.152 115.206 164.234C115.295 164.316 115.363 164.416 115.411 164.532C115.466 164.641 115.493 164.764 115.493 164.901C115.493 165.031 115.469 165.154 115.421 165.27C115.374 165.386 115.305 165.489 115.216 165.578C115.127 165.66 115.025 165.725 114.909 165.772C114.799 165.82 114.676 165.844 114.54 165.844ZM113.894 179V168.5H115.206V179H113.894ZM124.64 179V177.134H124.599C124.257 177.804 123.789 178.323 123.194 178.692C122.606 179.062 121.939 179.246 121.194 179.246C120.688 179.246 120.23 179.174 119.82 179.031C119.417 178.887 119.072 178.686 118.785 178.426C118.504 178.159 118.286 177.841 118.128 177.472C117.978 177.103 117.903 176.696 117.903 176.252C117.903 175.302 118.197 174.546 118.785 173.986C119.373 173.418 120.261 173.049 121.451 172.878L124.64 172.417C124.64 170.4 123.857 169.392 122.292 169.392C121.068 169.392 119.933 169.84 118.887 170.735V169.3C119.106 169.143 119.352 169.002 119.625 168.879C119.906 168.75 120.2 168.64 120.507 168.551C120.815 168.456 121.129 168.384 121.451 168.336C121.779 168.281 122.097 168.254 122.404 168.254C123.573 168.254 124.455 168.582 125.05 169.238C125.651 169.895 125.952 170.872 125.952 172.171V179H124.64ZM121.933 173.904C121.461 173.972 121.058 174.058 120.723 174.16C120.388 174.263 120.111 174.403 119.892 174.581C119.673 174.751 119.513 174.967 119.41 175.227C119.308 175.479 119.256 175.794 119.256 176.17C119.256 176.45 119.304 176.71 119.4 176.949C119.502 177.188 119.646 177.397 119.831 177.575C120.022 177.746 120.251 177.879 120.518 177.975C120.791 178.07 121.099 178.118 121.44 178.118C121.905 178.118 122.333 178.029 122.722 177.852C123.112 177.674 123.447 177.428 123.727 177.113C124.014 176.799 124.236 176.423 124.394 175.985C124.558 175.548 124.64 175.073 124.64 174.56V173.524L121.933 173.904ZM136.196 179V172.95C136.196 170.578 135.334 169.392 133.612 169.392C133.154 169.392 132.73 169.484 132.34 169.669C131.951 169.847 131.612 170.096 131.325 170.417C131.045 170.739 130.823 171.122 130.659 171.566C130.501 172.003 130.423 172.479 130.423 172.991V179H129.11V168.5H130.423V170.325H130.464C131.243 168.944 132.416 168.254 133.981 168.254C135.129 168.254 136.004 168.626 136.606 169.372C137.208 170.117 137.508 171.193 137.508 172.602V179H136.196ZM145.188 178.877C144.737 179.103 144.245 179.215 143.712 179.215C142.017 179.215 141.169 178.238 141.169 176.283V169.648H139.323V168.5H141.169V165.854L142.481 165.424V168.5H145.188V169.648H142.481V176.078C142.481 176.789 142.598 177.301 142.83 177.616C143.062 177.93 143.456 178.087 144.009 178.087C144.419 178.087 144.812 177.964 145.188 177.718V178.877Z" fill="#4F4F4F"/>
</svg>
