<svg width="215" height="229" viewBox="0 0 215 229" fill="none" xmlns="http://www.w3.org/2000/svg">
<rect x="1" y="1" width="213" height="227" rx="3" fill="white" stroke="#828282" stroke-width="2"/>
<path fill-rule="evenodd" clip-rule="evenodd" d="M60.3965 50.7077L107.501 25.916L154.605 50.7077V60.6243H60.3965V50.7077ZM107.501 37.1219L133.334 50.7077H81.6679L107.501 37.1219ZM72.7923 70.541H82.709V105.249H72.7923V70.541ZM102.542 70.541H112.459V105.249H102.542V70.541ZM154.605 125.083V115.166H60.3965V125.083H154.605ZM132.292 70.541H142.209V105.249H132.292V70.541Z" fill="#828282"/>
<path d="M48.6606 173.278V179H47.2969V164.296H51.0908C51.8633 164.296 52.5469 164.392 53.1416 164.583C53.7363 164.774 54.2388 165.051 54.6489 165.414C55.0591 165.776 55.3701 166.22 55.582 166.747C55.7939 167.273 55.8999 167.875 55.8999 168.551C55.8999 169.235 55.7803 169.867 55.541 170.448C55.3018 171.022 54.9565 171.521 54.5054 171.945C54.061 172.362 53.5176 172.69 52.875 172.93C52.2324 173.162 51.5044 173.278 50.6909 173.278H48.6606ZM48.6606 165.547V172.027H50.6089C51.8735 172.027 52.834 171.733 53.4902 171.146C54.1465 170.558 54.4746 169.727 54.4746 168.654C54.4746 166.583 53.2646 165.547 50.8447 165.547H48.6606ZM63.8774 169.843C63.5698 169.618 63.1733 169.505 62.688 169.505C62.3394 169.505 62.0317 169.573 61.7651 169.71C61.4985 169.84 61.2627 170.018 61.0576 170.243C60.8594 170.469 60.6885 170.732 60.5449 171.033C60.4082 171.327 60.2954 171.634 60.2065 171.956C60.1245 172.277 60.063 172.602 60.022 172.93C59.9878 173.258 59.9707 173.569 59.9707 173.863V179H58.6685V168.5H59.9707V170.746H60.0117C60.1348 170.363 60.2886 170.021 60.4731 169.72C60.6646 169.413 60.8833 169.156 61.1294 168.951C61.3755 168.739 61.6421 168.579 61.9292 168.469C62.2231 168.36 62.5308 168.305 62.8521 168.305C63.064 168.305 63.252 168.319 63.416 168.346C63.5869 168.374 63.7407 168.415 63.8774 168.469V169.843ZM69.7939 179.246C69.0146 179.246 68.314 179.116 67.6919 178.856C67.0767 178.597 66.5503 178.231 66.1128 177.759C65.6753 177.281 65.3403 176.71 65.1079 176.047C64.8755 175.384 64.7593 174.649 64.7593 173.842C64.7593 172.967 64.8823 172.185 65.1284 171.494C65.3745 170.804 65.7231 170.219 66.1743 169.741C66.6323 169.255 67.1826 168.886 67.8252 168.633C68.4678 168.38 69.1855 168.254 69.9785 168.254C70.7373 168.254 71.4209 168.38 72.0293 168.633C72.6377 168.879 73.1538 169.238 73.5776 169.71C74.0015 170.182 74.3262 170.756 74.5518 171.433C74.7773 172.109 74.8901 172.878 74.8901 173.74C74.8901 174.56 74.7705 175.309 74.5312 175.985C74.2988 176.655 73.9639 177.233 73.5264 177.718C73.0889 178.204 72.5557 178.58 71.9268 178.846C71.2979 179.113 70.5869 179.246 69.7939 179.246ZM69.8965 169.392C69.3223 169.392 68.8027 169.491 68.3379 169.689C67.873 169.888 67.4731 170.178 67.1382 170.561C66.8101 170.937 66.5571 171.402 66.3794 171.956C66.2017 172.502 66.1128 173.125 66.1128 173.822C66.1128 174.478 66.2017 175.069 66.3794 175.596C66.5571 176.122 66.8066 176.573 67.1279 176.949C67.4561 177.325 67.8525 177.616 68.3174 177.821C68.7822 178.019 69.3018 178.118 69.876 178.118C70.4639 178.118 70.9834 178.022 71.4346 177.831C71.8857 177.633 72.2686 177.349 72.583 176.98C72.8975 176.604 73.1333 176.146 73.2905 175.606C73.4546 175.066 73.5366 174.451 73.5366 173.76C73.5366 172.345 73.2222 171.265 72.5933 170.52C71.9644 169.768 71.0654 169.392 69.8965 169.392ZM82.0371 164.696C81.7432 164.504 81.3638 164.409 80.8989 164.409C79.6685 164.409 79.0532 165.212 79.0532 166.818V168.5H81.668V169.648H79.0532V179H77.7407V169.648H75.9053V168.5H77.7407V166.736C77.7407 166.21 77.8057 165.735 77.9355 165.311C78.0723 164.88 78.2705 164.515 78.5303 164.214C78.79 163.906 79.1147 163.67 79.5044 163.506C79.9009 163.342 80.3555 163.26 80.8682 163.26C81.3604 163.26 81.75 163.325 82.0371 163.455V164.696ZM83.9648 173.986C83.9717 174.628 84.0571 175.206 84.2212 175.719C84.3853 176.231 84.6211 176.666 84.9287 177.021C85.2363 177.376 85.6089 177.65 86.0464 177.841C86.4907 178.026 86.9897 178.118 87.5435 178.118C88.7261 178.118 89.8438 177.705 90.8965 176.877V178.169C89.8916 178.887 88.6748 179.246 87.2461 179.246C86.542 179.246 85.9028 179.123 85.3286 178.877C84.7544 178.631 84.2656 178.275 83.8623 177.811C83.459 177.339 83.1479 176.761 82.9292 176.078C82.7104 175.394 82.6011 174.615 82.6011 173.74C82.6011 172.954 82.7207 172.226 82.96 171.556C83.1992 170.886 83.5308 170.308 83.9546 169.823C84.3784 169.331 84.8809 168.948 85.4619 168.674C86.043 168.394 86.6787 168.254 87.3691 168.254C88.0459 168.254 88.644 168.374 89.1636 168.613C89.6831 168.845 90.1172 169.18 90.4658 169.618C90.8213 170.055 91.0913 170.588 91.2759 171.217C91.4604 171.846 91.5527 172.55 91.5527 173.33V173.986H83.9648ZM90.1992 172.837C90.1787 171.744 89.9189 170.896 89.4199 170.294C88.9209 169.693 88.2271 169.392 87.3384 169.392C86.894 169.392 86.4805 169.471 86.0977 169.628C85.7217 169.785 85.3901 170.014 85.103 170.315C84.8159 170.609 84.5767 170.971 84.3853 171.402C84.2007 171.826 84.0708 172.304 83.9956 172.837H90.1992ZM93.5317 177.113C93.73 177.271 93.9453 177.411 94.1777 177.534C94.4102 177.657 94.6494 177.763 94.8955 177.852C95.1416 177.94 95.3877 178.009 95.6338 178.057C95.8867 178.098 96.126 178.118 96.3516 178.118C97.9102 178.118 98.6895 177.534 98.6895 176.365C98.6895 176.098 98.6348 175.869 98.5254 175.678C98.416 175.479 98.2588 175.302 98.0537 175.145C97.8486 174.98 97.6025 174.83 97.3154 174.693C97.0283 174.557 96.7036 174.413 96.3413 174.263C95.856 174.064 95.439 173.863 95.0903 173.658C94.7417 173.453 94.4546 173.23 94.229 172.991C94.0034 172.745 93.8359 172.479 93.7266 172.191C93.6172 171.897 93.5625 171.566 93.5625 171.197C93.5625 170.732 93.6616 170.318 93.8599 169.956C94.0649 169.594 94.3384 169.286 94.6802 169.033C95.022 168.78 95.415 168.589 95.8594 168.459C96.3105 168.322 96.7822 168.254 97.2744 168.254C98.1836 168.254 98.9766 168.425 99.6533 168.767V170.151C98.8672 169.645 98.0195 169.392 97.1104 169.392C96.7822 169.392 96.4814 169.433 96.208 169.515C95.9414 169.597 95.7124 169.713 95.521 169.864C95.3296 170.014 95.1792 170.195 95.0698 170.407C94.9673 170.612 94.916 170.841 94.916 171.094C94.916 171.354 94.957 171.583 95.0391 171.781C95.1211 171.973 95.2476 172.147 95.4185 172.304C95.5962 172.461 95.8218 172.612 96.0952 172.755C96.3755 172.899 96.7139 173.053 97.1104 173.217C97.6162 173.422 98.0537 173.627 98.4229 173.832C98.792 174.03 99.0962 174.249 99.3354 174.488C99.5747 174.721 99.7524 174.984 99.8687 175.278C99.9849 175.565 100.043 175.9 100.043 176.283C100.043 176.754 99.9438 177.175 99.7456 177.544C99.5542 177.913 99.2842 178.224 98.9355 178.477C98.5938 178.73 98.1904 178.921 97.7256 179.051C97.2607 179.181 96.7549 179.246 96.208 179.246C95.1484 179.246 94.2563 179.024 93.5317 178.58V177.113ZM102.063 177.113C102.261 177.271 102.477 177.411 102.709 177.534C102.941 177.657 103.181 177.763 103.427 177.852C103.673 177.94 103.919 178.009 104.165 178.057C104.418 178.098 104.657 178.118 104.883 178.118C106.441 178.118 107.221 177.534 107.221 176.365C107.221 176.098 107.166 175.869 107.057 175.678C106.947 175.479 106.79 175.302 106.585 175.145C106.38 174.98 106.134 174.83 105.847 174.693C105.56 174.557 105.235 174.413 104.873 174.263C104.387 174.064 103.97 173.863 103.622 173.658C103.273 173.453 102.986 173.23 102.76 172.991C102.535 172.745 102.367 172.479 102.258 172.191C102.148 171.897 102.094 171.566 102.094 171.197C102.094 170.732 102.193 170.318 102.391 169.956C102.596 169.594 102.87 169.286 103.211 169.033C103.553 168.78 103.946 168.589 104.391 168.459C104.842 168.322 105.313 168.254 105.806 168.254C106.715 168.254 107.508 168.425 108.185 168.767V170.151C107.398 169.645 106.551 169.392 105.642 169.392C105.313 169.392 105.013 169.433 104.739 169.515C104.473 169.597 104.244 169.713 104.052 169.864C103.861 170.014 103.71 170.195 103.601 170.407C103.499 170.612 103.447 170.841 103.447 171.094C103.447 171.354 103.488 171.583 103.57 171.781C103.652 171.973 103.779 172.147 103.95 172.304C104.127 172.461 104.353 172.612 104.626 172.755C104.907 172.899 105.245 173.053 105.642 173.217C106.147 173.422 106.585 173.627 106.954 173.832C107.323 174.03 107.627 174.249 107.867 174.488C108.106 174.721 108.284 174.984 108.4 175.278C108.516 175.565 108.574 175.9 108.574 176.283C108.574 176.754 108.475 177.175 108.277 177.544C108.085 177.913 107.815 178.224 107.467 178.477C107.125 178.73 106.722 178.921 106.257 179.051C105.792 179.181 105.286 179.246 104.739 179.246C103.68 179.246 102.788 179.024 102.063 178.58V177.113ZM111.835 165.844C111.582 165.844 111.363 165.755 111.179 165.578C110.994 165.4 110.902 165.174 110.902 164.901C110.902 164.634 110.994 164.416 111.179 164.245C111.363 164.067 111.582 163.978 111.835 163.978C111.965 163.978 112.088 164.002 112.204 164.05C112.32 164.091 112.419 164.152 112.501 164.234C112.59 164.316 112.659 164.416 112.707 164.532C112.761 164.641 112.789 164.764 112.789 164.901C112.789 165.031 112.765 165.154 112.717 165.27C112.669 165.386 112.601 165.489 112.512 165.578C112.423 165.66 112.32 165.725 112.204 165.772C112.095 165.82 111.972 165.844 111.835 165.844ZM111.189 179V168.5H112.501V179H111.189ZM120.182 179.246C119.402 179.246 118.702 179.116 118.08 178.856C117.464 178.597 116.938 178.231 116.5 177.759C116.063 177.281 115.728 176.71 115.496 176.047C115.263 175.384 115.147 174.649 115.147 173.842C115.147 172.967 115.27 172.185 115.516 171.494C115.762 170.804 116.111 170.219 116.562 169.741C117.02 169.255 117.57 168.886 118.213 168.633C118.855 168.38 119.573 168.254 120.366 168.254C121.125 168.254 121.809 168.38 122.417 168.633C123.025 168.879 123.542 169.238 123.965 169.71C124.389 170.182 124.714 170.756 124.939 171.433C125.165 172.109 125.278 172.878 125.278 173.74C125.278 174.56 125.158 175.309 124.919 175.985C124.687 176.655 124.352 177.233 123.914 177.718C123.477 178.204 122.943 178.58 122.314 178.846C121.686 179.113 120.975 179.246 120.182 179.246ZM120.284 169.392C119.71 169.392 119.19 169.491 118.726 169.689C118.261 169.888 117.861 170.178 117.526 170.561C117.198 170.937 116.945 171.402 116.767 171.956C116.589 172.502 116.5 173.125 116.5 173.822C116.5 174.478 116.589 175.069 116.767 175.596C116.945 176.122 117.194 176.573 117.516 176.949C117.844 177.325 118.24 177.616 118.705 177.821C119.17 178.019 119.689 178.118 120.264 178.118C120.852 178.118 121.371 178.022 121.822 177.831C122.273 177.633 122.656 177.349 122.971 176.98C123.285 176.604 123.521 176.146 123.678 175.606C123.842 175.066 123.924 174.451 123.924 173.76C123.924 172.345 123.61 171.265 122.981 170.52C122.352 169.768 121.453 169.392 120.284 169.392ZM135.009 179V172.95C135.009 170.578 134.147 169.392 132.425 169.392C131.967 169.392 131.543 169.484 131.153 169.669C130.764 169.847 130.425 170.096 130.138 170.417C129.858 170.739 129.636 171.122 129.472 171.566C129.314 172.003 129.236 172.479 129.236 172.991V179H127.923V168.5H129.236V170.325H129.277C130.056 168.944 131.229 168.254 132.794 168.254C133.942 168.254 134.817 168.626 135.419 169.372C136.021 170.117 136.321 171.193 136.321 172.602V179H135.009ZM146.575 179V172.95C146.575 170.578 145.714 169.392 143.991 169.392C143.533 169.392 143.109 169.484 142.72 169.669C142.33 169.847 141.992 170.096 141.705 170.417C141.424 170.739 141.202 171.122 141.038 171.566C140.881 172.003 140.802 172.479 140.802 172.991V179H139.49V168.5H140.802V170.325H140.843C141.623 168.944 142.795 168.254 144.36 168.254C145.509 168.254 146.384 168.626 146.985 169.372C147.587 170.117 147.888 171.193 147.888 172.602V179H146.575ZM151.682 173.986C151.688 174.628 151.774 175.206 151.938 175.719C152.102 176.231 152.338 176.666 152.646 177.021C152.953 177.376 153.326 177.65 153.763 177.841C154.208 178.026 154.707 178.118 155.26 178.118C156.443 178.118 157.561 177.705 158.613 176.877V178.169C157.608 178.887 156.392 179.246 154.963 179.246C154.259 179.246 153.62 179.123 153.045 178.877C152.471 178.631 151.982 178.275 151.579 177.811C151.176 177.339 150.865 176.761 150.646 176.078C150.427 175.394 150.318 174.615 150.318 173.74C150.318 172.954 150.438 172.226 150.677 171.556C150.916 170.886 151.248 170.308 151.671 169.823C152.095 169.331 152.598 168.948 153.179 168.674C153.76 168.394 154.396 168.254 155.086 168.254C155.763 168.254 156.361 168.374 156.88 168.613C157.4 168.845 157.834 169.18 158.183 169.618C158.538 170.055 158.808 170.588 158.993 171.217C159.177 171.846 159.27 172.55 159.27 173.33V173.986H151.682ZM157.916 172.837C157.896 171.744 157.636 170.896 157.137 170.294C156.638 169.693 155.944 169.392 155.055 169.392C154.611 169.392 154.197 169.471 153.814 169.628C153.438 169.785 153.107 170.014 152.82 170.315C152.533 170.609 152.293 170.971 152.102 171.402C151.917 171.826 151.788 172.304 151.712 172.837H157.916ZM161.843 179V163.455H163.156V179H161.843ZM81.2065 202V200.154H81.1655C80.8169 200.817 80.3179 201.333 79.6685 201.703C79.0259 202.065 78.2944 202.246 77.4741 202.246C76.8179 202.246 76.2197 202.126 75.6797 201.887C75.1465 201.641 74.6885 201.289 74.3057 200.831C73.9229 200.373 73.6255 199.819 73.4136 199.17C73.2085 198.521 73.106 197.786 73.106 196.965C73.106 196.118 73.2188 195.345 73.4443 194.648C73.6768 193.944 74.0015 193.342 74.4185 192.843C74.8423 192.337 75.3481 191.948 75.936 191.674C76.5308 191.394 77.1904 191.254 77.915 191.254C79.4258 191.254 80.5093 191.859 81.1655 193.069H81.2065V186.455H82.519V202H81.2065ZM81.2065 195.663C81.2065 195.205 81.1279 194.778 80.9707 194.381C80.8135 193.985 80.5947 193.64 80.3145 193.346C80.0342 193.052 79.6958 192.819 79.2993 192.648C78.9097 192.478 78.479 192.392 78.0073 192.392C77.4878 192.392 77.0093 192.495 76.5718 192.7C76.1343 192.905 75.7583 193.202 75.4438 193.592C75.1362 193.975 74.8936 194.443 74.7158 194.997C74.5449 195.55 74.4595 196.179 74.4595 196.883C74.4595 197.546 74.5381 198.141 74.6953 198.667C74.8525 199.194 75.0747 199.638 75.3618 200C75.6558 200.363 76.0044 200.64 76.4077 200.831C76.811 201.022 77.2588 201.118 77.751 201.118C78.2842 201.118 78.7627 201.022 79.1865 200.831C79.6172 200.64 79.9795 200.376 80.2734 200.042C80.5742 199.707 80.8032 199.313 80.9604 198.862C81.1245 198.411 81.2065 197.929 81.2065 197.417V195.663ZM92.7729 202V200.216H92.7319C92.021 201.569 90.917 202.246 89.4199 202.246C86.9248 202.246 85.6772 200.722 85.6772 197.673V191.5H86.9897V197.427C86.9897 198.685 87.2119 199.614 87.6562 200.216C88.1074 200.817 88.7944 201.118 89.7173 201.118C90.1685 201.118 90.5786 201.033 90.9478 200.862C91.3237 200.684 91.645 200.438 91.9116 200.124C92.1851 199.802 92.397 199.419 92.5474 198.975C92.6978 198.531 92.7729 198.039 92.7729 197.499V191.5H94.0854V202H92.7729ZM110.594 202V200.154H110.553C110.205 200.817 109.706 201.333 109.056 201.703C108.414 202.065 107.682 202.246 106.862 202.246C106.206 202.246 105.607 202.126 105.067 201.887C104.534 201.641 104.076 201.289 103.693 200.831C103.311 200.373 103.013 199.819 102.801 199.17C102.596 198.521 102.494 197.786 102.494 196.965C102.494 196.118 102.606 195.345 102.832 194.648C103.064 193.944 103.389 193.342 103.806 192.843C104.23 192.337 104.736 191.948 105.324 191.674C105.918 191.394 106.578 191.254 107.303 191.254C108.813 191.254 109.897 191.859 110.553 193.069H110.594V186.455H111.907V202H110.594ZM110.594 195.663C110.594 195.205 110.516 194.778 110.358 194.381C110.201 193.985 109.982 193.64 109.702 193.346C109.422 193.052 109.083 192.819 108.687 192.648C108.297 192.478 107.867 192.392 107.395 192.392C106.875 192.392 106.397 192.495 105.959 192.7C105.522 192.905 105.146 193.202 104.832 193.592C104.524 193.975 104.281 194.443 104.104 194.997C103.933 195.55 103.847 196.179 103.847 196.883C103.847 197.546 103.926 198.141 104.083 198.667C104.24 199.194 104.462 199.638 104.75 200C105.043 200.363 105.392 200.64 105.795 200.831C106.199 201.022 106.646 201.118 107.139 201.118C107.672 201.118 108.15 201.022 108.574 200.831C109.005 200.64 109.367 200.376 109.661 200.042C109.962 199.707 110.191 199.313 110.348 198.862C110.512 198.411 110.594 197.929 110.594 197.417V195.663ZM120.5 192.843C120.192 192.618 119.795 192.505 119.31 192.505C118.961 192.505 118.654 192.573 118.387 192.71C118.121 192.84 117.885 193.018 117.68 193.243C117.481 193.469 117.311 193.732 117.167 194.033C117.03 194.327 116.917 194.634 116.829 194.956C116.747 195.277 116.685 195.602 116.644 195.93C116.61 196.258 116.593 196.569 116.593 196.863V202H115.291V191.5H116.593V193.746H116.634C116.757 193.363 116.911 193.021 117.095 192.72C117.287 192.413 117.505 192.156 117.751 191.951C117.998 191.739 118.264 191.579 118.551 191.469C118.845 191.36 119.153 191.305 119.474 191.305C119.686 191.305 119.874 191.319 120.038 191.346C120.209 191.374 120.363 191.415 120.5 191.469V192.843ZM126.416 202.246C125.637 202.246 124.936 202.116 124.314 201.856C123.699 201.597 123.172 201.231 122.735 200.759C122.297 200.281 121.962 199.71 121.73 199.047C121.498 198.384 121.381 197.649 121.381 196.842C121.381 195.967 121.504 195.185 121.75 194.494C121.997 193.804 122.345 193.219 122.796 192.741C123.254 192.255 123.805 191.886 124.447 191.633C125.09 191.38 125.808 191.254 126.601 191.254C127.359 191.254 128.043 191.38 128.651 191.633C129.26 191.879 129.776 192.238 130.2 192.71C130.624 193.182 130.948 193.756 131.174 194.433C131.399 195.109 131.512 195.878 131.512 196.74C131.512 197.56 131.393 198.309 131.153 198.985C130.921 199.655 130.586 200.233 130.148 200.718C129.711 201.204 129.178 201.58 128.549 201.846C127.92 202.113 127.209 202.246 126.416 202.246ZM126.519 192.392C125.944 192.392 125.425 192.491 124.96 192.689C124.495 192.888 124.095 193.178 123.76 193.561C123.432 193.937 123.179 194.402 123.001 194.956C122.824 195.502 122.735 196.125 122.735 196.822C122.735 197.478 122.824 198.069 123.001 198.596C123.179 199.122 123.429 199.573 123.75 199.949C124.078 200.325 124.475 200.616 124.939 200.821C125.404 201.019 125.924 201.118 126.498 201.118C127.086 201.118 127.605 201.022 128.057 200.831C128.508 200.633 128.891 200.349 129.205 199.98C129.52 199.604 129.755 199.146 129.913 198.606C130.077 198.066 130.159 197.451 130.159 196.76C130.159 195.345 129.844 194.265 129.215 193.52C128.586 192.768 127.688 192.392 126.519 192.392ZM134.804 188.844C134.551 188.844 134.332 188.755 134.147 188.578C133.963 188.4 133.871 188.174 133.871 187.901C133.871 187.634 133.963 187.416 134.147 187.245C134.332 187.067 134.551 186.978 134.804 186.978C134.934 186.978 135.057 187.002 135.173 187.05C135.289 187.091 135.388 187.152 135.47 187.234C135.559 187.316 135.627 187.416 135.675 187.532C135.73 187.641 135.757 187.764 135.757 187.901C135.757 188.031 135.733 188.154 135.686 188.27C135.638 188.386 135.569 188.489 135.48 188.578C135.392 188.66 135.289 188.725 135.173 188.772C135.063 188.82 134.94 188.844 134.804 188.844ZM134.158 202V191.5H135.47V202H134.158ZM143.366 201.877C142.915 202.103 142.422 202.215 141.889 202.215C140.194 202.215 139.346 201.238 139.346 199.283V192.648H137.5V191.5H139.346V188.854L140.659 188.424V191.5H143.366V192.648H140.659V199.078C140.659 199.789 140.775 200.301 141.007 200.616C141.24 200.93 141.633 201.087 142.187 201.087C142.597 201.087 142.99 200.964 143.366 200.718V201.877Z" fill="#4F4F4F"/>
<path d="M49.6606 219V217.667H49.6313C49.3872 218.146 49.0527 218.517 48.6279 218.78C48.208 219.044 47.7319 219.176 47.1997 219.176C46.8384 219.176 46.5112 219.125 46.2183 219.022C45.9302 218.919 45.6836 218.775 45.4785 218.59C45.2783 218.399 45.1221 218.172 45.0098 217.909C44.9023 217.645 44.8486 217.354 44.8486 217.037C44.8486 216.358 45.0586 215.819 45.4785 215.418C45.8984 215.013 46.5332 214.75 47.3828 214.627L49.6606 214.298C49.6606 212.857 49.1016 212.137 47.9834 212.137C47.1094 212.137 46.2988 212.457 45.5518 213.097V212.071C45.708 211.959 45.8838 211.859 46.0791 211.771C46.2793 211.678 46.4893 211.6 46.709 211.537C46.9287 211.468 47.1533 211.417 47.3828 211.383C47.6172 211.344 47.8442 211.324 48.064 211.324C48.8989 211.324 49.5288 211.559 49.9536 212.027C50.3833 212.496 50.5981 213.194 50.5981 214.122V219H49.6606ZM47.7271 215.36C47.3901 215.409 47.1021 215.47 46.8628 215.543C46.6235 215.616 46.4258 215.716 46.2695 215.843C46.1133 215.965 45.9985 216.119 45.9253 216.305C45.8521 216.485 45.8154 216.71 45.8154 216.979C45.8154 217.179 45.8496 217.364 45.918 217.535C45.9912 217.706 46.0938 217.855 46.2256 217.982C46.3623 218.104 46.5259 218.199 46.7163 218.268C46.9116 218.336 47.1313 218.37 47.3755 218.37C47.7075 218.37 48.0127 218.307 48.291 218.18C48.5693 218.053 48.8086 217.877 49.0088 217.652C49.2139 217.428 49.3726 217.159 49.4849 216.847C49.6021 216.534 49.6606 216.195 49.6606 215.829V215.089L47.7271 215.36ZM55.5273 219H54.6338L51.7627 211.5H52.7954L54.8682 217.213C54.9951 217.56 55.0757 217.865 55.1099 218.128H55.1392C55.1978 217.777 55.2734 217.481 55.3662 217.242L57.5122 211.5H58.5156L55.5273 219ZM60.2002 215.418C60.2051 215.877 60.2661 216.29 60.3833 216.656C60.5005 217.022 60.6689 217.333 60.8887 217.586C61.1084 217.84 61.3745 218.036 61.687 218.172C62.0044 218.304 62.3608 218.37 62.7563 218.37C63.6011 218.37 64.3994 218.075 65.1514 217.484V218.407C64.4336 218.919 63.5645 219.176 62.5439 219.176C62.041 219.176 61.5845 219.088 61.1743 218.912C60.7642 218.736 60.415 218.482 60.127 218.15C59.8389 217.813 59.6167 217.401 59.4604 216.913C59.3042 216.424 59.2261 215.868 59.2261 215.243C59.2261 214.681 59.3115 214.161 59.4824 213.683C59.6533 213.204 59.8901 212.792 60.1929 212.445C60.4956 212.093 60.8545 211.82 61.2695 211.625C61.6846 211.424 62.1387 211.324 62.6318 211.324C63.1152 211.324 63.5425 211.41 63.9136 211.581C64.2847 211.747 64.5947 211.986 64.8438 212.298C65.0977 212.611 65.2905 212.992 65.4224 213.441C65.5542 213.89 65.6201 214.393 65.6201 214.95V215.418H60.2002ZM64.6533 214.598C64.6387 213.817 64.4531 213.211 64.0967 212.782C63.7402 212.352 63.2446 212.137 62.6099 212.137C62.2925 212.137 61.9971 212.193 61.7236 212.306C61.4551 212.418 61.2183 212.582 61.0132 212.796C60.8081 213.006 60.6372 213.265 60.5005 213.573C60.3687 213.875 60.2759 214.217 60.2222 214.598H64.6533ZM72.4463 218.663C71.8896 219 71.2158 219.173 70.4248 219.183C69.8877 219.188 69.4043 219.095 68.9746 218.905C68.5449 218.714 68.1787 218.451 67.876 218.114C67.5732 217.772 67.3413 217.372 67.1802 216.913C67.019 216.449 66.9385 215.946 66.9385 215.404C66.9385 214.842 67.0239 214.315 67.1948 213.822C67.3657 213.324 67.6147 212.892 67.9419 212.525C68.269 212.154 68.6694 211.861 69.1431 211.646C69.6167 211.432 70.1587 211.324 70.769 211.324C71.3892 211.324 71.9556 211.444 72.4683 211.683V212.679C71.9214 212.318 71.3306 212.137 70.6958 212.137C70.2515 212.137 69.856 212.223 69.5093 212.394C69.1626 212.56 68.8696 212.789 68.6304 213.082C68.396 213.37 68.2153 213.709 68.0884 214.1C67.9663 214.486 67.9053 214.896 67.9053 215.331C67.9053 215.731 67.9565 216.114 68.0591 216.48C68.1665 216.847 68.3276 217.171 68.5425 217.455C68.7622 217.733 69.0381 217.955 69.3701 218.121C69.7021 218.287 70.0928 218.37 70.542 218.37C71.2451 218.37 71.8799 218.16 72.4463 217.74V218.663ZM79.4995 209.391V213.346H83.3374V214.232H79.4995V219H78.5254V208.497H83.645V209.391H79.4995ZM89.2407 212.459C89.021 212.298 88.7378 212.218 88.3911 212.218C88.1421 212.218 87.9224 212.267 87.7319 212.364C87.5415 212.457 87.373 212.584 87.2266 212.745C87.085 212.906 86.9629 213.094 86.8604 213.309C86.7627 213.519 86.6821 213.739 86.6187 213.968C86.5601 214.198 86.5161 214.43 86.4868 214.664C86.4624 214.898 86.4502 215.121 86.4502 215.331V219H85.52V211.5H86.4502V213.104H86.4795C86.5674 212.831 86.6772 212.586 86.8091 212.372C86.9458 212.152 87.1021 211.969 87.2778 211.822C87.4536 211.671 87.644 211.556 87.8491 211.478C88.0591 211.4 88.2788 211.361 88.5083 211.361C88.6597 211.361 88.7939 211.371 88.9111 211.39C89.0332 211.41 89.1431 211.439 89.2407 211.478V212.459ZM94.9243 219V217.667H94.895C94.6509 218.146 94.3164 218.517 93.8916 218.78C93.4717 219.044 92.9956 219.176 92.4634 219.176C92.1021 219.176 91.7749 219.125 91.4819 219.022C91.1938 218.919 90.9473 218.775 90.7422 218.59C90.542 218.399 90.3857 218.172 90.2734 217.909C90.166 217.645 90.1123 217.354 90.1123 217.037C90.1123 216.358 90.3223 215.819 90.7422 215.418C91.1621 215.013 91.7969 214.75 92.6465 214.627L94.9243 214.298C94.9243 212.857 94.3652 212.137 93.2471 212.137C92.373 212.137 91.5625 212.457 90.8154 213.097V212.071C90.9717 211.959 91.1475 211.859 91.3428 211.771C91.543 211.678 91.7529 211.6 91.9727 211.537C92.1924 211.468 92.417 211.417 92.6465 211.383C92.8809 211.344 93.1079 211.324 93.3276 211.324C94.1626 211.324 94.7925 211.559 95.2173 212.027C95.647 212.496 95.8618 213.194 95.8618 214.122V219H94.9243ZM92.9907 215.36C92.6538 215.409 92.3657 215.47 92.1265 215.543C91.8872 215.616 91.6895 215.716 91.5332 215.843C91.377 215.965 91.2622 216.119 91.189 216.305C91.1157 216.485 91.0791 216.71 91.0791 216.979C91.0791 217.179 91.1133 217.364 91.1816 217.535C91.2549 217.706 91.3574 217.855 91.4893 217.982C91.626 218.104 91.7896 218.199 91.98 218.268C92.1753 218.336 92.395 218.37 92.6392 218.37C92.9712 218.37 93.2764 218.307 93.5547 218.18C93.833 218.053 94.0723 217.877 94.2725 217.652C94.4775 217.428 94.6362 217.159 94.7485 216.847C94.8657 216.534 94.9243 216.195 94.9243 215.829V215.089L92.9907 215.36ZM103.179 219V214.679C103.179 212.984 102.563 212.137 101.333 212.137C101.006 212.137 100.703 212.203 100.425 212.335C100.146 212.462 99.9048 212.64 99.6997 212.87C99.4995 213.099 99.3408 213.373 99.2236 213.69C99.1113 214.002 99.0552 214.342 99.0552 214.708V219H98.1177V211.5H99.0552V212.804H99.0845C99.6411 211.817 100.479 211.324 101.597 211.324C102.417 211.324 103.042 211.59 103.472 212.123C103.901 212.655 104.116 213.424 104.116 214.43V219H103.179ZM111.367 218.663C110.811 219 110.137 219.173 109.346 219.183C108.809 219.188 108.325 219.095 107.896 218.905C107.466 218.714 107.1 218.451 106.797 218.114C106.494 217.772 106.262 217.372 106.101 216.913C105.94 216.449 105.859 215.946 105.859 215.404C105.859 214.842 105.945 214.315 106.116 213.822C106.287 213.324 106.536 212.892 106.863 212.525C107.19 212.154 107.59 211.861 108.064 211.646C108.538 211.432 109.08 211.324 109.69 211.324C110.31 211.324 110.876 211.444 111.389 211.683V212.679C110.842 212.318 110.251 212.137 109.617 212.137C109.172 212.137 108.777 212.223 108.43 212.394C108.083 212.56 107.791 212.789 107.551 213.082C107.317 213.37 107.136 213.709 107.009 214.1C106.887 214.486 106.826 214.896 106.826 215.331C106.826 215.731 106.877 216.114 106.98 216.48C107.087 216.847 107.249 217.171 107.463 217.455C107.683 217.733 107.959 217.955 108.291 218.121C108.623 218.287 109.014 218.37 109.463 218.37C110.166 218.37 110.801 218.16 111.367 217.74V218.663ZM113.623 215.418C113.628 215.877 113.689 216.29 113.806 216.656C113.923 217.022 114.092 217.333 114.312 217.586C114.531 217.84 114.797 218.036 115.11 218.172C115.427 218.304 115.784 218.37 116.179 218.37C117.024 218.37 117.822 218.075 118.574 217.484V218.407C117.856 218.919 116.987 219.176 115.967 219.176C115.464 219.176 115.007 219.088 114.597 218.912C114.187 218.736 113.838 218.482 113.55 218.15C113.262 217.813 113.04 217.401 112.883 216.913C112.727 216.424 112.649 215.868 112.649 215.243C112.649 214.681 112.734 214.161 112.905 213.683C113.076 213.204 113.313 212.792 113.616 212.445C113.918 212.093 114.277 211.82 114.692 211.625C115.107 211.424 115.562 211.324 116.055 211.324C116.538 211.324 116.965 211.41 117.336 211.581C117.708 211.747 118.018 211.986 118.267 212.298C118.521 212.611 118.713 212.992 118.845 213.441C118.977 213.89 119.043 214.393 119.043 214.95V215.418H113.623ZM118.076 214.598C118.062 213.817 117.876 213.211 117.52 212.782C117.163 212.352 116.667 212.137 116.033 212.137C115.715 212.137 115.42 212.193 115.146 212.306C114.878 212.418 114.641 212.582 114.436 212.796C114.231 213.006 114.06 213.265 113.923 213.573C113.792 213.875 113.699 214.217 113.645 214.598H118.076ZM125.869 218.663C125.312 219 124.639 219.173 123.848 219.183C123.311 219.188 122.827 219.095 122.397 218.905C121.968 218.714 121.602 218.451 121.299 218.114C120.996 217.772 120.764 217.372 120.603 216.913C120.442 216.449 120.361 215.946 120.361 215.404C120.361 214.842 120.447 214.315 120.618 213.822C120.789 213.324 121.038 212.892 121.365 212.525C121.692 212.154 122.092 211.861 122.566 211.646C123.04 211.432 123.582 211.324 124.192 211.324C124.812 211.324 125.378 211.444 125.891 211.683V212.679C125.344 212.318 124.753 212.137 124.119 212.137C123.674 212.137 123.279 212.223 122.932 212.394C122.585 212.56 122.292 212.789 122.053 213.082C121.819 213.37 121.638 213.709 121.511 214.1C121.389 214.486 121.328 214.896 121.328 215.331C121.328 215.731 121.379 216.114 121.482 216.48C121.589 216.847 121.75 217.171 121.965 217.455C122.185 217.733 122.461 217.955 122.793 218.121C123.125 218.287 123.516 218.37 123.965 218.37C124.668 218.37 125.303 218.16 125.869 217.74V218.663ZM130.747 219.176C130.19 219.176 129.69 219.083 129.246 218.897C128.806 218.712 128.43 218.451 128.118 218.114C127.805 217.772 127.566 217.364 127.4 216.891C127.234 216.417 127.151 215.892 127.151 215.316C127.151 214.691 127.239 214.132 127.415 213.639C127.59 213.146 127.839 212.728 128.162 212.386C128.489 212.04 128.882 211.776 129.341 211.595C129.8 211.415 130.312 211.324 130.879 211.324C131.421 211.324 131.909 211.415 132.344 211.595C132.778 211.771 133.147 212.027 133.45 212.364C133.752 212.701 133.984 213.111 134.146 213.595C134.307 214.078 134.387 214.627 134.387 215.243C134.387 215.829 134.302 216.363 134.131 216.847C133.965 217.325 133.726 217.738 133.413 218.084C133.101 218.431 132.72 218.7 132.271 218.89C131.821 219.081 131.313 219.176 130.747 219.176ZM130.82 212.137C130.41 212.137 130.039 212.208 129.707 212.35C129.375 212.491 129.089 212.699 128.85 212.972C128.616 213.241 128.435 213.573 128.308 213.968C128.181 214.359 128.118 214.803 128.118 215.301C128.118 215.77 128.181 216.192 128.308 216.568C128.435 216.944 128.613 217.267 128.843 217.535C129.077 217.804 129.36 218.011 129.692 218.158C130.024 218.299 130.396 218.37 130.806 218.37C131.226 218.37 131.597 218.302 131.919 218.165C132.241 218.023 132.515 217.821 132.739 217.557C132.964 217.289 133.132 216.961 133.245 216.576C133.362 216.19 133.42 215.75 133.42 215.257C133.42 214.247 133.196 213.475 132.747 212.943C132.297 212.406 131.655 212.137 130.82 212.137ZM141.338 219V214.679C141.338 212.984 140.723 212.137 139.492 212.137C139.165 212.137 138.862 212.203 138.584 212.335C138.306 212.462 138.064 212.64 137.859 212.87C137.659 213.099 137.5 213.373 137.383 213.69C137.271 214.002 137.214 214.342 137.214 214.708V219H136.277V211.5H137.214V212.804H137.244C137.8 211.817 138.638 211.324 139.756 211.324C140.576 211.324 141.201 211.59 141.631 212.123C142.061 212.655 142.275 213.424 142.275 214.43V219H141.338ZM149.6 219V214.679C149.6 212.984 148.984 212.137 147.754 212.137C147.427 212.137 147.124 212.203 146.846 212.335C146.567 212.462 146.326 212.64 146.121 212.87C145.92 213.099 145.762 213.373 145.645 213.69C145.532 214.002 145.476 214.342 145.476 214.708V219H144.539V211.5H145.476V212.804H145.505C146.062 211.817 146.899 211.324 148.018 211.324C148.838 211.324 149.463 211.59 149.893 212.123C150.322 212.655 150.537 213.424 150.537 214.43V219H149.6ZM153.247 215.418C153.252 215.877 153.313 216.29 153.43 216.656C153.547 217.022 153.716 217.333 153.936 217.586C154.155 217.84 154.421 218.036 154.734 218.172C155.051 218.304 155.408 218.37 155.803 218.37C156.648 218.37 157.446 218.075 158.198 217.484V218.407C157.48 218.919 156.611 219.176 155.591 219.176C155.088 219.176 154.631 219.088 154.221 218.912C153.811 218.736 153.462 218.482 153.174 218.15C152.886 217.813 152.664 217.401 152.507 216.913C152.351 216.424 152.273 215.868 152.273 215.243C152.273 214.681 152.358 214.161 152.529 213.683C152.7 213.204 152.937 212.792 153.24 212.445C153.542 212.093 153.901 211.82 154.316 211.625C154.731 211.424 155.186 211.324 155.679 211.324C156.162 211.324 156.589 211.41 156.96 211.581C157.332 211.747 157.642 211.986 157.891 212.298C158.145 212.611 158.337 212.992 158.469 213.441C158.601 213.89 158.667 214.393 158.667 214.95V215.418H153.247ZM157.7 214.598C157.686 213.817 157.5 213.211 157.144 212.782C156.787 212.352 156.292 212.137 155.657 212.137C155.339 212.137 155.044 212.193 154.771 212.306C154.502 212.418 154.265 212.582 154.06 212.796C153.855 213.006 153.684 213.265 153.547 213.573C153.416 213.875 153.323 214.217 153.269 214.598H157.7ZM165.493 218.663C164.937 219 164.263 219.173 163.472 219.183C162.935 219.188 162.451 219.095 162.021 218.905C161.592 218.714 161.226 218.451 160.923 218.114C160.62 217.772 160.388 217.372 160.227 216.913C160.066 216.449 159.985 215.946 159.985 215.404C159.985 214.842 160.071 214.315 160.242 213.822C160.413 213.324 160.662 212.892 160.989 212.525C161.316 212.154 161.716 211.861 162.19 211.646C162.664 211.432 163.206 211.324 163.816 211.324C164.436 211.324 165.002 211.444 165.515 211.683V212.679C164.968 212.318 164.377 212.137 163.743 212.137C163.298 212.137 162.903 212.223 162.556 212.394C162.209 212.56 161.917 212.789 161.677 213.082C161.443 213.37 161.262 213.709 161.135 214.1C161.013 214.486 160.952 214.896 160.952 215.331C160.952 215.731 161.003 216.114 161.106 216.48C161.213 216.847 161.375 217.171 161.589 217.455C161.809 217.733 162.085 217.955 162.417 218.121C162.749 218.287 163.14 218.37 163.589 218.37C164.292 218.37 164.927 218.16 165.493 217.74V218.663ZM170.525 218.912C170.203 219.073 169.851 219.154 169.47 219.154C168.259 219.154 167.654 218.456 167.654 217.059V212.32H166.335V211.5H167.654V209.61L168.591 209.303V211.5H170.525V212.32H168.591V216.913C168.591 217.42 168.674 217.787 168.84 218.011C169.006 218.236 169.287 218.348 169.683 218.348C169.976 218.348 170.256 218.26 170.525 218.084V218.912Z" fill="#4F4F4F"/>
</svg>
