<svg width="330" height="84" viewBox="0 0 330 84" fill="none" xmlns="http://www.w3.org/2000/svg">
<rect x="1" y="1" width="328" height="82" rx="3" fill="white" stroke="#828282" stroke-width="2"/>
<path fill-rule="evenodd" clip-rule="evenodd" d="M17 24L51 7L85 24V30.8H17V24ZM51.0004 14.6841L69.6467 24.0001H32.3541L51.0004 14.6841ZM25.9468 37.6H33.1047V61.4H25.9468V37.6ZM47.4207 37.6H54.5786V61.4H47.4207V37.6ZM85 75V68.2H17V75H85ZM68.8955 37.6H76.0534V61.4H68.8955V37.6Z" fill="#828282"/>
<path d="M122.661 25.2783V31H121.297V16.2959H125.091C125.863 16.2959 126.547 16.3916 127.142 16.583C127.736 16.7744 128.239 17.0513 128.649 17.4136C129.059 17.7759 129.37 18.2202 129.582 18.7466C129.794 19.2729 129.9 19.8745 129.9 20.5513C129.9 21.2349 129.78 21.8672 129.541 22.4482C129.302 23.0225 128.957 23.5215 128.505 23.9453C128.061 24.3623 127.518 24.6904 126.875 24.9297C126.232 25.1621 125.504 25.2783 124.691 25.2783H122.661ZM122.661 17.5469V24.0273H124.609C125.874 24.0273 126.834 23.7334 127.49 23.1455C128.146 22.5576 128.475 21.7271 128.475 20.6538C128.475 18.5825 127.265 17.5469 124.845 17.5469H122.661ZM137.877 21.8433C137.57 21.6177 137.173 21.5049 136.688 21.5049C136.339 21.5049 136.032 21.5732 135.765 21.71C135.499 21.8398 135.263 22.0176 135.058 22.2432C134.859 22.4688 134.688 22.7319 134.545 23.0327C134.408 23.3267 134.295 23.6343 134.207 23.9556C134.125 24.2769 134.063 24.6016 134.022 24.9297C133.988 25.2578 133.971 25.5688 133.971 25.8628V31H132.668V20.5H133.971V22.7456H134.012C134.135 22.3628 134.289 22.021 134.473 21.7202C134.665 21.4126 134.883 21.1562 135.129 20.9512C135.375 20.7393 135.642 20.5786 135.929 20.4692C136.223 20.3599 136.531 20.3052 136.852 20.3052C137.064 20.3052 137.252 20.3188 137.416 20.3462C137.587 20.3735 137.741 20.4146 137.877 20.4692V21.8433ZM143.794 31.2461C143.015 31.2461 142.314 31.1162 141.692 30.8564C141.077 30.5967 140.55 30.231 140.113 29.7593C139.675 29.2808 139.34 28.71 139.108 28.0469C138.875 27.3838 138.759 26.6489 138.759 25.8423C138.759 24.9673 138.882 24.1846 139.128 23.4941C139.375 22.8037 139.723 22.2192 140.174 21.7407C140.632 21.2554 141.183 20.8862 141.825 20.6333C142.468 20.3804 143.186 20.2539 143.979 20.2539C144.737 20.2539 145.421 20.3804 146.029 20.6333C146.638 20.8794 147.154 21.2383 147.578 21.71C148.001 22.1816 148.326 22.7559 148.552 23.4326C148.777 24.1094 148.89 24.8784 148.89 25.7397C148.89 26.5601 148.771 27.3086 148.531 27.9854C148.299 28.6553 147.964 29.2329 147.526 29.7183C147.089 30.2036 146.556 30.5796 145.927 30.8462C145.298 31.1128 144.587 31.2461 143.794 31.2461ZM143.896 21.3921C143.322 21.3921 142.803 21.4912 142.338 21.6895C141.873 21.8877 141.473 22.1782 141.138 22.561C140.81 22.937 140.557 23.4019 140.379 23.9556C140.202 24.5024 140.113 25.1245 140.113 25.8218C140.113 26.478 140.202 27.0693 140.379 27.5957C140.557 28.1221 140.807 28.5732 141.128 28.9492C141.456 29.3252 141.853 29.6157 142.317 29.8208C142.782 30.019 143.302 30.1182 143.876 30.1182C144.464 30.1182 144.983 30.0225 145.435 29.8311C145.886 29.6328 146.269 29.3491 146.583 28.98C146.897 28.604 147.133 28.146 147.291 27.606C147.455 27.0659 147.537 26.4507 147.537 25.7603C147.537 24.3452 147.222 23.2651 146.593 22.52C145.964 21.7681 145.065 21.3921 143.896 21.3921ZM156.037 16.6958C155.743 16.5044 155.364 16.4087 154.899 16.4087C153.668 16.4087 153.053 17.2119 153.053 18.8184V20.5H155.668V21.6484H153.053V31H151.741V21.6484H149.905V20.5H151.741V18.7363C151.741 18.21 151.806 17.7349 151.936 17.311C152.072 16.8804 152.271 16.5146 152.53 16.2139C152.79 15.9062 153.115 15.6704 153.504 15.5063C153.901 15.3423 154.355 15.2603 154.868 15.2603C155.36 15.2603 155.75 15.3252 156.037 15.4551V16.6958ZM157.965 25.9858C157.972 26.6284 158.057 27.2061 158.221 27.7188C158.385 28.2314 158.621 28.6655 158.929 29.021C159.236 29.3765 159.609 29.6499 160.046 29.8413C160.491 30.0259 160.99 30.1182 161.543 30.1182C162.726 30.1182 163.844 29.7046 164.896 28.8774V30.1694C163.892 30.8872 162.675 31.2461 161.246 31.2461C160.542 31.2461 159.903 31.123 159.329 30.877C158.754 30.6309 158.266 30.2754 157.862 29.8105C157.459 29.3389 157.148 28.7612 156.929 28.0776C156.71 27.394 156.601 26.6147 156.601 25.7397C156.601 24.9536 156.721 24.2256 156.96 23.5557C157.199 22.8857 157.531 22.3081 157.955 21.8228C158.378 21.3306 158.881 20.9478 159.462 20.6743C160.043 20.394 160.679 20.2539 161.369 20.2539C162.046 20.2539 162.644 20.3735 163.164 20.6128C163.683 20.8452 164.117 21.1802 164.466 21.6177C164.821 22.0552 165.091 22.5884 165.276 23.2173C165.46 23.8462 165.553 24.5503 165.553 25.3296V25.9858H157.965ZM164.199 24.8374C164.179 23.7437 163.919 22.896 163.42 22.2944C162.921 21.6929 162.227 21.3921 161.338 21.3921C160.894 21.3921 160.48 21.4707 160.098 21.6279C159.722 21.7852 159.39 22.0142 159.103 22.3149C158.816 22.6089 158.577 22.9712 158.385 23.4019C158.201 23.8257 158.071 24.3042 157.996 24.8374H164.199ZM167.532 29.1133C167.73 29.2705 167.945 29.4106 168.178 29.5337C168.41 29.6567 168.649 29.7627 168.896 29.8516C169.142 29.9404 169.388 30.0088 169.634 30.0566C169.887 30.0977 170.126 30.1182 170.352 30.1182C171.91 30.1182 172.689 29.5337 172.689 28.3647C172.689 28.0981 172.635 27.8691 172.525 27.6777C172.416 27.4795 172.259 27.3018 172.054 27.1445C171.849 26.9805 171.603 26.8301 171.315 26.6934C171.028 26.5566 170.704 26.4131 170.341 26.2627C169.856 26.0645 169.439 25.8628 169.09 25.6577C168.742 25.4526 168.455 25.2305 168.229 24.9912C168.003 24.7451 167.836 24.4785 167.727 24.1914C167.617 23.8975 167.562 23.5659 167.562 23.1968C167.562 22.7319 167.662 22.3184 167.86 21.9561C168.065 21.5938 168.338 21.2861 168.68 21.0332C169.022 20.7803 169.415 20.5889 169.859 20.459C170.311 20.3223 170.782 20.2539 171.274 20.2539C172.184 20.2539 172.977 20.4248 173.653 20.7666V22.1509C172.867 21.645 172.02 21.3921 171.11 21.3921C170.782 21.3921 170.481 21.4331 170.208 21.5151C169.941 21.5972 169.712 21.7134 169.521 21.8638C169.33 22.0142 169.179 22.1953 169.07 22.4072C168.967 22.6123 168.916 22.8413 168.916 23.0942C168.916 23.354 168.957 23.583 169.039 23.7812C169.121 23.9727 169.248 24.147 169.418 24.3042C169.596 24.4614 169.822 24.6118 170.095 24.7554C170.375 24.8989 170.714 25.0527 171.11 25.2168C171.616 25.4219 172.054 25.627 172.423 25.832C172.792 26.0303 173.096 26.249 173.335 26.4883C173.575 26.7207 173.752 26.9839 173.869 27.2778C173.985 27.5649 174.043 27.8999 174.043 28.2827C174.043 28.7544 173.944 29.1748 173.746 29.5439C173.554 29.9131 173.284 30.2241 172.936 30.4771C172.594 30.73 172.19 30.9214 171.726 31.0513C171.261 31.1812 170.755 31.2461 170.208 31.2461C169.148 31.2461 168.256 31.0239 167.532 30.5796V29.1133ZM176.063 29.1133C176.261 29.2705 176.477 29.4106 176.709 29.5337C176.941 29.6567 177.181 29.7627 177.427 29.8516C177.673 29.9404 177.919 30.0088 178.165 30.0566C178.418 30.0977 178.657 30.1182 178.883 30.1182C180.441 30.1182 181.221 29.5337 181.221 28.3647C181.221 28.0981 181.166 27.8691 181.057 27.6777C180.947 27.4795 180.79 27.3018 180.585 27.1445C180.38 26.9805 180.134 26.8301 179.847 26.6934C179.56 26.5566 179.235 26.4131 178.873 26.2627C178.387 26.0645 177.97 25.8628 177.622 25.6577C177.273 25.4526 176.986 25.2305 176.76 24.9912C176.535 24.7451 176.367 24.4785 176.258 24.1914C176.148 23.8975 176.094 23.5659 176.094 23.1968C176.094 22.7319 176.193 22.3184 176.391 21.9561C176.596 21.5938 176.87 21.2861 177.211 21.0332C177.553 20.7803 177.946 20.5889 178.391 20.459C178.842 20.3223 179.313 20.2539 179.806 20.2539C180.715 20.2539 181.508 20.4248 182.185 20.7666V22.1509C181.398 21.645 180.551 21.3921 179.642 21.3921C179.313 21.3921 179.013 21.4331 178.739 21.5151C178.473 21.5972 178.244 21.7134 178.052 21.8638C177.861 22.0142 177.71 22.1953 177.601 22.4072C177.499 22.6123 177.447 22.8413 177.447 23.0942C177.447 23.354 177.488 23.583 177.57 23.7812C177.652 23.9727 177.779 24.147 177.95 24.3042C178.127 24.4614 178.353 24.6118 178.626 24.7554C178.907 24.8989 179.245 25.0527 179.642 25.2168C180.147 25.4219 180.585 25.627 180.954 25.832C181.323 26.0303 181.627 26.249 181.867 26.4883C182.106 26.7207 182.284 26.9839 182.4 27.2778C182.516 27.5649 182.574 27.8999 182.574 28.2827C182.574 28.7544 182.475 29.1748 182.277 29.5439C182.085 29.9131 181.815 30.2241 181.467 30.4771C181.125 30.73 180.722 30.9214 180.257 31.0513C179.792 31.1812 179.286 31.2461 178.739 31.2461C177.68 31.2461 176.788 31.0239 176.063 30.5796V29.1133ZM185.835 17.8442C185.582 17.8442 185.363 17.7554 185.179 17.5776C184.994 17.3999 184.902 17.1743 184.902 16.9009C184.902 16.6343 184.994 16.4155 185.179 16.2446C185.363 16.0669 185.582 15.978 185.835 15.978C185.965 15.978 186.088 16.002 186.204 16.0498C186.32 16.0908 186.419 16.1523 186.501 16.2344C186.59 16.3164 186.659 16.4155 186.707 16.5317C186.761 16.6411 186.789 16.7642 186.789 16.9009C186.789 17.0308 186.765 17.1538 186.717 17.27C186.669 17.3862 186.601 17.4888 186.512 17.5776C186.423 17.6597 186.32 17.7246 186.204 17.7725C186.095 17.8203 185.972 17.8442 185.835 17.8442ZM185.189 31V20.5H186.501V31H185.189ZM194.182 31.2461C193.402 31.2461 192.702 31.1162 192.08 30.8564C191.464 30.5967 190.938 30.231 190.5 29.7593C190.063 29.2808 189.728 28.71 189.496 28.0469C189.263 27.3838 189.147 26.6489 189.147 25.8423C189.147 24.9673 189.27 24.1846 189.516 23.4941C189.762 22.8037 190.111 22.2192 190.562 21.7407C191.02 21.2554 191.57 20.8862 192.213 20.6333C192.855 20.3804 193.573 20.2539 194.366 20.2539C195.125 20.2539 195.809 20.3804 196.417 20.6333C197.025 20.8794 197.542 21.2383 197.965 21.71C198.389 22.1816 198.714 22.7559 198.939 23.4326C199.165 24.1094 199.278 24.8784 199.278 25.7397C199.278 26.5601 199.158 27.3086 198.919 27.9854C198.687 28.6553 198.352 29.2329 197.914 29.7183C197.477 30.2036 196.943 30.5796 196.314 30.8462C195.686 31.1128 194.975 31.2461 194.182 31.2461ZM194.284 21.3921C193.71 21.3921 193.19 21.4912 192.726 21.6895C192.261 21.8877 191.861 22.1782 191.526 22.561C191.198 22.937 190.945 23.4019 190.767 23.9556C190.589 24.5024 190.5 25.1245 190.5 25.8218C190.5 26.478 190.589 27.0693 190.767 27.5957C190.945 28.1221 191.194 28.5732 191.516 28.9492C191.844 29.3252 192.24 29.6157 192.705 29.8208C193.17 30.019 193.689 30.1182 194.264 30.1182C194.852 30.1182 195.371 30.0225 195.822 29.8311C196.273 29.6328 196.656 29.3491 196.971 28.98C197.285 28.604 197.521 28.146 197.678 27.606C197.842 27.0659 197.924 26.4507 197.924 25.7603C197.924 24.3452 197.61 23.2651 196.981 22.52C196.352 21.7681 195.453 21.3921 194.284 21.3921ZM209.009 31V24.9502C209.009 22.5781 208.147 21.3921 206.425 21.3921C205.967 21.3921 205.543 21.4844 205.153 21.6689C204.764 21.8467 204.425 22.0962 204.138 22.4175C203.858 22.7388 203.636 23.1216 203.472 23.5659C203.314 24.0034 203.236 24.4785 203.236 24.9912V31H201.923V20.5H203.236V22.3252H203.277C204.056 20.9443 205.229 20.2539 206.794 20.2539C207.942 20.2539 208.817 20.6265 209.419 21.3716C210.021 22.1167 210.321 23.1934 210.321 24.6016V31H209.009ZM220.575 31V24.9502C220.575 22.5781 219.714 21.3921 217.991 21.3921C217.533 21.3921 217.109 21.4844 216.72 21.6689C216.33 21.8467 215.992 22.0962 215.705 22.4175C215.424 22.7388 215.202 23.1216 215.038 23.5659C214.881 24.0034 214.802 24.4785 214.802 24.9912V31H213.49V20.5H214.802V22.3252H214.843C215.623 20.9443 216.795 20.2539 218.36 20.2539C219.509 20.2539 220.384 20.6265 220.985 21.3716C221.587 22.1167 221.888 23.1934 221.888 24.6016V31H220.575ZM225.682 25.9858C225.688 26.6284 225.774 27.2061 225.938 27.7188C226.102 28.2314 226.338 28.6655 226.646 29.021C226.953 29.3765 227.326 29.6499 227.763 29.8413C228.208 30.0259 228.707 30.1182 229.26 30.1182C230.443 30.1182 231.561 29.7046 232.613 28.8774V30.1694C231.608 30.8872 230.392 31.2461 228.963 31.2461C228.259 31.2461 227.62 31.123 227.045 30.877C226.471 30.6309 225.982 30.2754 225.579 29.8105C225.176 29.3389 224.865 28.7612 224.646 28.0776C224.427 27.394 224.318 26.6147 224.318 25.7397C224.318 24.9536 224.438 24.2256 224.677 23.5557C224.916 22.8857 225.248 22.3081 225.671 21.8228C226.095 21.3306 226.598 20.9478 227.179 20.6743C227.76 20.394 228.396 20.2539 229.086 20.2539C229.763 20.2539 230.361 20.3735 230.88 20.6128C231.4 20.8452 231.834 21.1802 232.183 21.6177C232.538 22.0552 232.808 22.5884 232.993 23.2173C233.177 23.8462 233.27 24.5503 233.27 25.3296V25.9858H225.682ZM231.916 24.8374C231.896 23.7437 231.636 22.896 231.137 22.2944C230.638 21.6929 229.944 21.3921 229.055 21.3921C228.611 21.3921 228.197 21.4707 227.814 21.6279C227.438 21.7852 227.107 22.0142 226.82 22.3149C226.533 22.6089 226.293 22.9712 226.102 23.4019C225.917 23.8257 225.788 24.3042 225.712 24.8374H231.916ZM235.843 31V15.4551H237.156V31H235.843ZM155.207 54V52.1543H155.166C154.817 52.8174 154.318 53.3335 153.668 53.7026C153.026 54.0649 152.294 54.2461 151.474 54.2461C150.818 54.2461 150.22 54.1265 149.68 53.8872C149.146 53.6411 148.688 53.2891 148.306 52.8311C147.923 52.373 147.625 51.8193 147.414 51.1699C147.208 50.5205 147.106 49.7856 147.106 48.9653C147.106 48.1177 147.219 47.3452 147.444 46.6479C147.677 45.9438 148.001 45.3423 148.418 44.8433C148.842 44.3374 149.348 43.9478 149.936 43.6743C150.531 43.394 151.19 43.2539 151.915 43.2539C153.426 43.2539 154.509 43.8589 155.166 45.0688H155.207V38.4551H156.519V54H155.207ZM155.207 47.6631C155.207 47.2051 155.128 46.7778 154.971 46.3813C154.813 45.9849 154.595 45.6396 154.314 45.3457C154.034 45.0518 153.696 44.8193 153.299 44.6484C152.91 44.4775 152.479 44.3921 152.007 44.3921C151.488 44.3921 151.009 44.4946 150.572 44.6997C150.134 44.9048 149.758 45.2021 149.444 45.5918C149.136 45.9746 148.894 46.4429 148.716 46.9966C148.545 47.5503 148.459 48.1792 148.459 48.8833C148.459 49.5464 148.538 50.1411 148.695 50.6675C148.853 51.1938 149.075 51.6382 149.362 52.0005C149.656 52.3628 150.004 52.6396 150.408 52.8311C150.811 53.0225 151.259 53.1182 151.751 53.1182C152.284 53.1182 152.763 53.0225 153.187 52.8311C153.617 52.6396 153.979 52.3765 154.273 52.0415C154.574 51.7065 154.803 51.3135 154.96 50.8623C155.125 50.4111 155.207 49.9292 155.207 49.4165V47.6631ZM166.773 54V52.2158H166.732C166.021 53.5693 164.917 54.2461 163.42 54.2461C160.925 54.2461 159.677 52.7217 159.677 49.6729V43.5H160.99V49.4268C160.99 50.6846 161.212 51.6143 161.656 52.2158C162.107 52.8174 162.794 53.1182 163.717 53.1182C164.168 53.1182 164.579 53.0327 164.948 52.8618C165.324 52.6841 165.645 52.438 165.912 52.1235C166.185 51.8022 166.397 51.4194 166.547 50.9751C166.698 50.5308 166.773 50.0386 166.773 49.4985V43.5H168.085V54H166.773ZM184.594 54V52.1543H184.553C184.205 52.8174 183.706 53.3335 183.056 53.7026C182.414 54.0649 181.682 54.2461 180.862 54.2461C180.206 54.2461 179.607 54.1265 179.067 53.8872C178.534 53.6411 178.076 53.2891 177.693 52.8311C177.311 52.373 177.013 51.8193 176.801 51.1699C176.596 50.5205 176.494 49.7856 176.494 48.9653C176.494 48.1177 176.606 47.3452 176.832 46.6479C177.064 45.9438 177.389 45.3423 177.806 44.8433C178.23 44.3374 178.736 43.9478 179.324 43.6743C179.918 43.394 180.578 43.2539 181.303 43.2539C182.813 43.2539 183.897 43.8589 184.553 45.0688H184.594V38.4551H185.907V54H184.594ZM184.594 47.6631C184.594 47.2051 184.516 46.7778 184.358 46.3813C184.201 45.9849 183.982 45.6396 183.702 45.3457C183.422 45.0518 183.083 44.8193 182.687 44.6484C182.297 44.4775 181.867 44.3921 181.395 44.3921C180.875 44.3921 180.397 44.4946 179.959 44.6997C179.522 44.9048 179.146 45.2021 178.832 45.5918C178.524 45.9746 178.281 46.4429 178.104 46.9966C177.933 47.5503 177.847 48.1792 177.847 48.8833C177.847 49.5464 177.926 50.1411 178.083 50.6675C178.24 51.1938 178.462 51.6382 178.75 52.0005C179.043 52.3628 179.392 52.6396 179.795 52.8311C180.199 53.0225 180.646 53.1182 181.139 53.1182C181.672 53.1182 182.15 53.0225 182.574 52.8311C183.005 52.6396 183.367 52.3765 183.661 52.0415C183.962 51.7065 184.191 51.3135 184.348 50.8623C184.512 50.4111 184.594 49.9292 184.594 49.4165V47.6631ZM194.5 44.8433C194.192 44.6177 193.795 44.5049 193.31 44.5049C192.961 44.5049 192.654 44.5732 192.387 44.71C192.121 44.8398 191.885 45.0176 191.68 45.2432C191.481 45.4688 191.311 45.7319 191.167 46.0327C191.03 46.3267 190.917 46.6343 190.829 46.9556C190.747 47.2769 190.685 47.6016 190.644 47.9297C190.61 48.2578 190.593 48.5688 190.593 48.8628V54H189.291V43.5H190.593V45.7456H190.634C190.757 45.3628 190.911 45.021 191.095 44.7202C191.287 44.4126 191.505 44.1562 191.751 43.9512C191.998 43.7393 192.264 43.5786 192.551 43.4692C192.845 43.3599 193.153 43.3052 193.474 43.3052C193.686 43.3052 193.874 43.3188 194.038 43.3462C194.209 43.3735 194.363 43.4146 194.5 43.4692V44.8433ZM200.416 54.2461C199.637 54.2461 198.936 54.1162 198.314 53.8564C197.699 53.5967 197.172 53.231 196.735 52.7593C196.297 52.2808 195.962 51.71 195.73 51.0469C195.498 50.3838 195.381 49.6489 195.381 48.8423C195.381 47.9673 195.504 47.1846 195.75 46.4941C195.997 45.8037 196.345 45.2192 196.796 44.7407C197.254 44.2554 197.805 43.8862 198.447 43.6333C199.09 43.3804 199.808 43.2539 200.601 43.2539C201.359 43.2539 202.043 43.3804 202.651 43.6333C203.26 43.8794 203.776 44.2383 204.2 44.71C204.624 45.1816 204.948 45.7559 205.174 46.4326C205.399 47.1094 205.512 47.8784 205.512 48.7397C205.512 49.5601 205.393 50.3086 205.153 50.9854C204.921 51.6553 204.586 52.2329 204.148 52.7183C203.711 53.2036 203.178 53.5796 202.549 53.8462C201.92 54.1128 201.209 54.2461 200.416 54.2461ZM200.519 44.3921C199.944 44.3921 199.425 44.4912 198.96 44.6895C198.495 44.8877 198.095 45.1782 197.76 45.561C197.432 45.937 197.179 46.4019 197.001 46.9556C196.824 47.5024 196.735 48.1245 196.735 48.8218C196.735 49.478 196.824 50.0693 197.001 50.5957C197.179 51.1221 197.429 51.5732 197.75 51.9492C198.078 52.3252 198.475 52.6157 198.939 52.8208C199.404 53.019 199.924 53.1182 200.498 53.1182C201.086 53.1182 201.605 53.0225 202.057 52.8311C202.508 52.6328 202.891 52.3491 203.205 51.98C203.52 51.604 203.755 51.146 203.913 50.606C204.077 50.0659 204.159 49.4507 204.159 48.7603C204.159 47.3452 203.844 46.2651 203.215 45.52C202.586 44.7681 201.688 44.3921 200.519 44.3921ZM208.804 40.8442C208.551 40.8442 208.332 40.7554 208.147 40.5776C207.963 40.3999 207.871 40.1743 207.871 39.9009C207.871 39.6343 207.963 39.4155 208.147 39.2446C208.332 39.0669 208.551 38.978 208.804 38.978C208.934 38.978 209.057 39.002 209.173 39.0498C209.289 39.0908 209.388 39.1523 209.47 39.2344C209.559 39.3164 209.627 39.4155 209.675 39.5317C209.73 39.6411 209.757 39.7642 209.757 39.9009C209.757 40.0308 209.733 40.1538 209.686 40.27C209.638 40.3862 209.569 40.4888 209.48 40.5776C209.392 40.6597 209.289 40.7246 209.173 40.7725C209.063 40.8203 208.94 40.8442 208.804 40.8442ZM208.158 54V43.5H209.47V54H208.158ZM217.366 53.877C216.915 54.1025 216.422 54.2153 215.889 54.2153C214.194 54.2153 213.346 53.2378 213.346 51.2827V44.6484H211.5V43.5H213.346V40.8545L214.659 40.4238V43.5H217.366V44.6484H214.659V51.0776C214.659 51.7886 214.775 52.3013 215.007 52.6157C215.24 52.9302 215.633 53.0874 216.187 53.0874C216.597 53.0874 216.99 52.9644 217.366 52.7183V53.877Z" fill="#4F4F4F"/>
<path d="M115.802 73.3877C114.308 71.6592 113.561 69.5303 113.561 67.001C113.561 64.4082 114.312 62.2402 115.816 60.4971H116.717C115.189 62.3037 114.425 64.4668 114.425 66.9863C114.425 69.4277 115.182 71.5615 116.695 73.3877H115.802ZM122.408 71V69.667H122.379C122.135 70.1455 121.8 70.5166 121.375 70.7803C120.956 71.0439 120.479 71.1758 119.947 71.1758C119.586 71.1758 119.259 71.1245 118.966 71.022C118.678 70.9194 118.431 70.7754 118.226 70.5898C118.026 70.3994 117.87 70.1724 117.757 69.9087C117.65 69.645 117.596 69.3545 117.596 69.0371C117.596 68.3584 117.806 67.8188 118.226 67.4185C118.646 67.0132 119.281 66.7495 120.13 66.6274L122.408 66.2979C122.408 64.8574 121.849 64.1372 120.731 64.1372C119.857 64.1372 119.046 64.457 118.299 65.0967V64.0713C118.456 63.959 118.631 63.8589 118.827 63.771C119.027 63.6782 119.237 63.6001 119.457 63.5366C119.676 63.4683 119.901 63.417 120.13 63.3828C120.365 63.3438 120.592 63.3242 120.812 63.3242C121.646 63.3242 122.276 63.5586 122.701 64.0273C123.131 64.4961 123.346 65.1943 123.346 66.1221V71H122.408ZM120.475 67.3599C120.138 67.4087 119.85 67.4697 119.61 67.543C119.371 67.6162 119.173 67.7163 119.017 67.8433C118.861 67.9653 118.746 68.1191 118.673 68.3047C118.6 68.4854 118.563 68.71 118.563 68.9785C118.563 69.1787 118.597 69.3643 118.666 69.5352C118.739 69.7061 118.841 69.855 118.973 69.9819C119.11 70.104 119.273 70.1992 119.464 70.2676C119.659 70.3359 119.879 70.3701 120.123 70.3701C120.455 70.3701 120.76 70.3066 121.039 70.1797C121.317 70.0527 121.556 69.877 121.756 69.6523C121.961 69.4277 122.12 69.1592 122.232 68.8467C122.35 68.5342 122.408 68.1948 122.408 67.8286V67.0889L120.475 67.3599ZM128.275 71H127.381L124.51 63.5H125.543L127.616 69.2129C127.743 69.5596 127.823 69.8647 127.857 70.1284H127.887C127.945 69.7769 128.021 69.4814 128.114 69.2422L130.26 63.5H131.263L128.275 71ZM132.948 67.4185C132.953 67.8774 133.014 68.29 133.131 68.6562C133.248 69.0225 133.417 69.3325 133.636 69.5864C133.856 69.8403 134.122 70.0356 134.435 70.1724C134.752 70.3042 135.108 70.3701 135.504 70.3701C136.349 70.3701 137.147 70.0747 137.899 69.4839V70.4067C137.181 70.9194 136.312 71.1758 135.292 71.1758C134.789 71.1758 134.332 71.0879 133.922 70.9121C133.512 70.7363 133.163 70.4824 132.875 70.1504C132.586 69.8135 132.364 69.4009 132.208 68.9126C132.052 68.4243 131.974 67.8677 131.974 67.2427C131.974 66.6812 132.059 66.1611 132.23 65.6826C132.401 65.2041 132.638 64.7915 132.94 64.4448C133.243 64.0933 133.602 63.8198 134.017 63.6245C134.432 63.4243 134.886 63.3242 135.379 63.3242C135.863 63.3242 136.29 63.4097 136.661 63.5806C137.032 63.7466 137.342 63.9858 137.591 64.2983C137.845 64.6108 138.038 64.9917 138.17 65.4409C138.302 65.8901 138.368 66.3931 138.368 66.9497V67.4185H132.948ZM137.401 66.5981C137.386 65.8169 137.201 65.2114 136.844 64.7817C136.488 64.3521 135.992 64.1372 135.357 64.1372C135.04 64.1372 134.745 64.1934 134.471 64.3057C134.203 64.418 133.966 64.5815 133.761 64.7964C133.556 65.0063 133.385 65.2651 133.248 65.5728C133.116 65.8755 133.023 66.2173 132.97 66.5981H137.401ZM145.194 70.6631C144.637 71 143.963 71.1733 143.172 71.1831C142.635 71.188 142.152 71.0952 141.722 70.9048C141.292 70.7144 140.926 70.4507 140.624 70.1138C140.321 69.772 140.089 69.3716 139.928 68.9126C139.767 68.4487 139.686 67.9458 139.686 67.4038C139.686 66.8423 139.771 66.3149 139.942 65.8218C140.113 65.3237 140.362 64.8916 140.689 64.5254C141.017 64.1543 141.417 63.8613 141.891 63.6465C142.364 63.4316 142.906 63.3242 143.517 63.3242C144.137 63.3242 144.703 63.4438 145.216 63.6831V64.6792C144.669 64.3179 144.078 64.1372 143.443 64.1372C142.999 64.1372 142.604 64.2227 142.257 64.3936C141.91 64.5596 141.617 64.7891 141.378 65.082C141.144 65.3701 140.963 65.7095 140.836 66.1001C140.714 66.4858 140.653 66.896 140.653 67.3306C140.653 67.731 140.704 68.1143 140.807 68.4805C140.914 68.8467 141.075 69.1714 141.29 69.4546C141.51 69.7329 141.786 69.9551 142.118 70.1211C142.45 70.2871 142.84 70.3701 143.29 70.3701C143.993 70.3701 144.627 70.1602 145.194 69.7402V70.6631ZM152.247 61.3906V65.3457H156.085V66.2319H152.247V71H151.273V60.4971H156.393V61.3906H152.247ZM161.988 64.4595C161.769 64.2983 161.485 64.2178 161.139 64.2178C160.89 64.2178 160.67 64.2666 160.479 64.3643C160.289 64.457 160.121 64.584 159.974 64.7451C159.833 64.9062 159.71 65.0942 159.608 65.3091C159.51 65.519 159.43 65.7388 159.366 65.9683C159.308 66.1978 159.264 66.4297 159.234 66.6641C159.21 66.8984 159.198 67.1206 159.198 67.3306V71H158.268V63.5H159.198V65.104H159.227C159.315 64.8306 159.425 64.5864 159.557 64.3716C159.693 64.1519 159.85 63.9688 160.025 63.8223C160.201 63.6709 160.392 63.5562 160.597 63.478C160.807 63.3999 161.026 63.3608 161.256 63.3608C161.407 63.3608 161.542 63.3706 161.659 63.3901C161.781 63.4097 161.891 63.439 161.988 63.478V64.4595ZM167.672 71V69.667H167.643C167.398 70.1455 167.064 70.5166 166.639 70.7803C166.219 71.0439 165.743 71.1758 165.211 71.1758C164.85 71.1758 164.522 71.1245 164.229 71.022C163.941 70.9194 163.695 70.7754 163.49 70.5898C163.29 70.3994 163.133 70.1724 163.021 69.9087C162.914 69.645 162.86 69.3545 162.86 69.0371C162.86 68.3584 163.07 67.8188 163.49 67.4185C163.91 67.0132 164.544 66.7495 165.394 66.6274L167.672 66.2979C167.672 64.8574 167.113 64.1372 165.995 64.1372C165.121 64.1372 164.31 64.457 163.563 65.0967V64.0713C163.719 63.959 163.895 63.8589 164.09 63.771C164.291 63.6782 164.5 63.6001 164.72 63.5366C164.94 63.4683 165.165 63.417 165.394 63.3828C165.628 63.3438 165.855 63.3242 166.075 63.3242C166.91 63.3242 167.54 63.5586 167.965 64.0273C168.395 64.4961 168.609 65.1943 168.609 66.1221V71H167.672ZM165.738 67.3599C165.401 67.4087 165.113 67.4697 164.874 67.543C164.635 67.6162 164.437 67.7163 164.281 67.8433C164.125 67.9653 164.01 68.1191 163.937 68.3047C163.863 68.4854 163.827 68.71 163.827 68.9785C163.827 69.1787 163.861 69.3643 163.929 69.5352C164.002 69.7061 164.105 69.855 164.237 69.9819C164.374 70.104 164.537 70.1992 164.728 70.2676C164.923 70.3359 165.143 70.3701 165.387 70.3701C165.719 70.3701 166.024 70.3066 166.302 70.1797C166.581 70.0527 166.82 69.877 167.02 69.6523C167.225 69.4277 167.384 69.1592 167.496 68.8467C167.613 68.5342 167.672 68.1948 167.672 67.8286V67.0889L165.738 67.3599ZM175.926 71V66.6787C175.926 64.9844 175.311 64.1372 174.081 64.1372C173.753 64.1372 173.451 64.2031 173.172 64.335C172.894 64.4619 172.652 64.6401 172.447 64.8696C172.247 65.0991 172.088 65.3726 171.971 65.6899C171.859 66.0024 171.803 66.3418 171.803 66.708V71H170.865V63.5H171.803V64.8037H171.832C172.389 63.8174 173.226 63.3242 174.344 63.3242C175.165 63.3242 175.79 63.5903 176.219 64.1226C176.649 64.6548 176.864 65.4238 176.864 66.4297V71H175.926ZM184.115 70.6631C183.558 71 182.884 71.1733 182.093 71.1831C181.556 71.188 181.073 71.0952 180.643 70.9048C180.213 70.7144 179.847 70.4507 179.544 70.1138C179.242 69.772 179.01 69.3716 178.849 68.9126C178.688 68.4487 178.607 67.9458 178.607 67.4038C178.607 66.8423 178.692 66.3149 178.863 65.8218C179.034 65.3237 179.283 64.8916 179.61 64.5254C179.938 64.1543 180.338 63.8613 180.812 63.6465C181.285 63.4316 181.827 63.3242 182.438 63.3242C183.058 63.3242 183.624 63.4438 184.137 63.6831V64.6792C183.59 64.3179 182.999 64.1372 182.364 64.1372C181.92 64.1372 181.524 64.2227 181.178 64.3936C180.831 64.5596 180.538 64.7891 180.299 65.082C180.064 65.3701 179.884 65.7095 179.757 66.1001C179.635 66.4858 179.574 66.896 179.574 67.3306C179.574 67.731 179.625 68.1143 179.728 68.4805C179.835 68.8467 179.996 69.1714 180.211 69.4546C180.431 69.7329 180.707 69.9551 181.039 70.1211C181.371 70.2871 181.761 70.3701 182.21 70.3701C182.914 70.3701 183.548 70.1602 184.115 69.7402V70.6631ZM186.371 67.4185C186.375 67.8774 186.437 68.29 186.554 68.6562C186.671 69.0225 186.839 69.3325 187.059 69.5864C187.279 69.8403 187.545 70.0356 187.857 70.1724C188.175 70.3042 188.531 70.3701 188.927 70.3701C189.771 70.3701 190.57 70.0747 191.322 69.4839V70.4067C190.604 70.9194 189.735 71.1758 188.714 71.1758C188.211 71.1758 187.755 71.0879 187.345 70.9121C186.935 70.7363 186.585 70.4824 186.297 70.1504C186.009 69.8135 185.787 69.4009 185.631 68.9126C185.475 68.4243 185.396 67.8677 185.396 67.2427C185.396 66.6812 185.482 66.1611 185.653 65.6826C185.824 65.2041 186.061 64.7915 186.363 64.4448C186.666 64.0933 187.025 63.8198 187.44 63.6245C187.855 63.4243 188.309 63.3242 188.802 63.3242C189.286 63.3242 189.713 63.4097 190.084 63.5806C190.455 63.7466 190.765 63.9858 191.014 64.2983C191.268 64.6108 191.461 64.9917 191.593 65.4409C191.725 65.8901 191.791 66.3931 191.791 66.9497V67.4185H186.371ZM190.824 66.5981C190.809 65.8169 190.624 65.2114 190.267 64.7817C189.911 64.3521 189.415 64.1372 188.78 64.1372C188.463 64.1372 188.167 64.1934 187.894 64.3057C187.625 64.418 187.389 64.5815 187.184 64.7964C186.979 65.0063 186.808 65.2651 186.671 65.5728C186.539 65.8755 186.446 66.2173 186.393 66.5981H190.824ZM200.843 70.6118C200.033 70.9927 199.107 71.1831 198.067 71.1831C197.325 71.1831 196.651 71.0537 196.046 70.7949C195.44 70.5312 194.923 70.1675 194.493 69.7036C194.068 69.2397 193.739 68.688 193.504 68.0483C193.275 67.4087 193.16 66.7104 193.16 65.9536C193.16 65.1577 193.282 64.418 193.526 63.7344C193.775 63.0459 194.129 62.4502 194.588 61.9473C195.047 61.4395 195.602 61.0415 196.251 60.7534C196.905 60.4653 197.638 60.3213 198.448 60.3213C199.342 60.3213 200.14 60.458 200.843 60.7314V61.7715C200.091 61.3955 199.288 61.2075 198.434 61.2075C197.755 61.2075 197.152 61.3247 196.625 61.5591C196.097 61.7935 195.653 62.1206 195.292 62.5405C194.93 62.9556 194.654 63.4487 194.464 64.02C194.273 64.5864 194.178 65.2065 194.178 65.8804C194.178 66.4858 194.264 67.0571 194.435 67.5942C194.605 68.1265 194.857 68.5928 195.189 68.9932C195.526 69.3936 195.943 69.7109 196.441 69.9453C196.939 70.1797 197.518 70.2969 198.177 70.2969C199.188 70.2969 200.077 70.0845 200.843 69.6597V70.6118ZM206 71.1758C205.443 71.1758 204.942 71.083 204.498 70.8975C204.059 70.7119 203.683 70.4507 203.37 70.1138C203.058 69.772 202.818 69.3643 202.652 68.8906C202.486 68.417 202.403 67.8921 202.403 67.3159C202.403 66.6909 202.491 66.1318 202.667 65.6387C202.843 65.1455 203.092 64.728 203.414 64.3862C203.741 64.0396 204.134 63.7759 204.593 63.5952C205.052 63.4146 205.565 63.3242 206.131 63.3242C206.673 63.3242 207.162 63.4146 207.596 63.5952C208.031 63.771 208.399 64.0273 208.702 64.3643C209.005 64.7012 209.237 65.1113 209.398 65.5947C209.559 66.0781 209.64 66.6274 209.64 67.2427C209.64 67.8286 209.554 68.3633 209.383 68.8467C209.217 69.3252 208.978 69.7378 208.666 70.0845C208.353 70.4312 207.972 70.6997 207.523 70.8901C207.074 71.0806 206.566 71.1758 206 71.1758ZM206.073 64.1372C205.663 64.1372 205.292 64.208 204.959 64.3496C204.627 64.4912 204.342 64.6987 204.103 64.9722C203.868 65.2407 203.688 65.5728 203.561 65.9683C203.434 66.3589 203.37 66.8032 203.37 67.3013C203.37 67.77 203.434 68.1924 203.561 68.5684C203.688 68.9443 203.866 69.2666 204.095 69.5352C204.33 69.8037 204.613 70.0112 204.945 70.1577C205.277 70.2993 205.648 70.3701 206.058 70.3701C206.478 70.3701 206.849 70.3018 207.171 70.165C207.494 70.0234 207.767 69.8208 207.992 69.5571C208.216 69.2886 208.385 68.9614 208.497 68.5757C208.614 68.1899 208.673 67.7505 208.673 67.2573C208.673 66.2466 208.448 65.4751 207.999 64.9429C207.55 64.4058 206.908 64.1372 206.073 64.1372ZM216.59 71V66.6787C216.59 64.9844 215.975 64.1372 214.745 64.1372C214.417 64.1372 214.115 64.2031 213.836 64.335C213.558 64.4619 213.316 64.6401 213.111 64.8696C212.911 65.0991 212.752 65.3726 212.635 65.6899C212.523 66.0024 212.467 66.3418 212.467 66.708V71H211.529V63.5H212.467V64.8037H212.496C213.053 63.8174 213.89 63.3242 215.008 63.3242C215.829 63.3242 216.454 63.5903 216.883 64.1226C217.313 64.6548 217.528 65.4238 217.528 66.4297V71H216.59ZM224.852 71V66.6787C224.852 64.9844 224.237 64.1372 223.006 64.1372C222.679 64.1372 222.376 64.2031 222.098 64.335C221.82 64.4619 221.578 64.6401 221.373 64.8696C221.173 65.0991 221.014 65.3726 220.897 65.6899C220.785 66.0024 220.729 66.3418 220.729 66.708V71H219.791V63.5H220.729V64.8037H220.758C221.314 63.8174 222.152 63.3242 223.27 63.3242C224.09 63.3242 224.715 63.5903 225.145 64.1226C225.575 64.6548 225.79 65.4238 225.79 66.4297V71H224.852ZM228.5 67.4185C228.504 67.8774 228.565 68.29 228.683 68.6562C228.8 69.0225 228.968 69.3325 229.188 69.5864C229.408 69.8403 229.674 70.0356 229.986 70.1724C230.304 70.3042 230.66 70.3701 231.056 70.3701C231.9 70.3701 232.699 70.0747 233.451 69.4839V70.4067C232.733 70.9194 231.864 71.1758 230.843 71.1758C230.34 71.1758 229.884 71.0879 229.474 70.9121C229.063 70.7363 228.714 70.4824 228.426 70.1504C228.138 69.8135 227.916 69.4009 227.76 68.9126C227.604 68.4243 227.525 67.8677 227.525 67.2427C227.525 66.6812 227.611 66.1611 227.782 65.6826C227.953 65.2041 228.189 64.7915 228.492 64.4448C228.795 64.0933 229.154 63.8198 229.569 63.6245C229.984 63.4243 230.438 63.3242 230.931 63.3242C231.415 63.3242 231.842 63.4097 232.213 63.5806C232.584 63.7466 232.894 63.9858 233.143 64.2983C233.397 64.6108 233.59 64.9917 233.722 65.4409C233.854 65.8901 233.919 66.3931 233.919 66.9497V67.4185H228.5ZM232.953 66.5981C232.938 65.8169 232.752 65.2114 232.396 64.7817C232.04 64.3521 231.544 64.1372 230.909 64.1372C230.592 64.1372 230.296 64.1934 230.023 64.3057C229.754 64.418 229.518 64.5815 229.312 64.7964C229.107 65.0063 228.937 65.2651 228.8 65.5728C228.668 65.8755 228.575 66.2173 228.521 66.5981H232.953ZM240.746 70.6631C240.189 71 239.515 71.1733 238.724 71.1831C238.187 71.188 237.704 71.0952 237.274 70.9048C236.844 70.7144 236.478 70.4507 236.175 70.1138C235.873 69.772 235.641 69.3716 235.479 68.9126C235.318 68.4487 235.238 67.9458 235.238 67.4038C235.238 66.8423 235.323 66.3149 235.494 65.8218C235.665 65.3237 235.914 64.8916 236.241 64.5254C236.568 64.1543 236.969 63.8613 237.442 63.6465C237.916 63.4316 238.458 63.3242 239.068 63.3242C239.688 63.3242 240.255 63.4438 240.768 63.6831V64.6792C240.221 64.3179 239.63 64.1372 238.995 64.1372C238.551 64.1372 238.155 64.2227 237.809 64.3936C237.462 64.5596 237.169 64.7891 236.93 65.082C236.695 65.3701 236.515 65.7095 236.388 66.1001C236.266 66.4858 236.205 66.896 236.205 67.3306C236.205 67.731 236.256 68.1143 236.358 68.4805C236.466 68.8467 236.627 69.1714 236.842 69.4546C237.062 69.7329 237.337 69.9551 237.669 70.1211C238.001 70.2871 238.392 70.3701 238.841 70.3701C239.544 70.3701 240.179 70.1602 240.746 69.7402V70.6631ZM245.777 70.9121C245.455 71.0732 245.104 71.1538 244.723 71.1538C243.512 71.1538 242.906 70.4556 242.906 69.0591V64.3203H241.588V63.5H242.906V61.6104L243.844 61.3027V63.5H245.777V64.3203H243.844V68.9126C243.844 69.4204 243.927 69.7866 244.093 70.0112C244.259 70.2358 244.54 70.3481 244.935 70.3481C245.228 70.3481 245.509 70.2603 245.777 70.0845V70.9121ZM246.305 73.3877C247.818 71.5615 248.575 69.4277 248.575 66.9863C248.575 64.4668 247.811 62.3037 246.283 60.4971H247.184C248.688 62.2402 249.439 64.4082 249.439 67.001C249.439 69.5303 248.692 71.6592 247.198 73.3877H246.305Z" fill="#4F4F4F"/>
</svg>
