<svg width="40" height="40" viewBox="0 0 40 40" fill="none" xmlns="http://www.w3.org/2000/svg">
<mask id="mask0" mask-type="alpha" maskUnits="userSpaceOnUse" x="0" y="0" width="40" height="40">
<circle cx="20" cy="20" r="16.5" fill="#C4C4C4" stroke="black" stroke-width="7"/>
</mask>
<g mask="url(#mask0)">
<circle cx="20" cy="20" r="19" fill="#F2F2F2" stroke="#0B2534" stroke-width="2"/>
<path fill-rule="evenodd" clip-rule="evenodd" d="M20 11.1108C17.5444 11.1108 15.5555 13.0997 15.5555 15.5553C15.5555 18.0108 17.5444 19.9997 20 19.9997C22.4555 19.9997 24.4444 18.0108 24.4444 15.5553C24.4444 13.0997 22.4555 11.1108 20 11.1108ZM22.2222 15.5553C22.2222 14.3331 21.2222 13.3331 20 13.3331C18.7778 13.3331 17.7778 14.3331 17.7778 15.5553C17.7778 16.7775 18.7778 17.7775 20 17.7775C21.2222 17.7775 22.2222 16.7775 22.2222 15.5553ZM26.6666 26.6664C26.4444 25.8775 23 24.4442 20 24.4442C17.0111 24.4442 13.5889 25.8664 13.3333 26.6664H26.6666ZM11.1111 26.6664C11.1111 23.7108 17.0333 22.222 20 22.222C22.9666 22.222 28.8889 23.7108 28.8889 26.6664V28.8886H11.1111V26.6664Z" fill="#0B2534"/>
</g>
</svg>
