<svg width="73" height="60" viewBox="0 0 73 60" fill="none" xmlns="http://www.w3.org/2000/svg">
<path fill-rule="evenodd" clip-rule="evenodd" d="M43 24.375V18.5417C43 14.96 41.0983 11.9617 37.75 11.1683V10.375C37.75 9.40667 36.9683 8.625 36 8.625C35.0316 8.625 34.25 9.40667 34.25 10.375V11.1683C30.9133 11.9617 29 14.9483 29 18.5417V24.375L26.6666 26.7083V27.875H45.3333V26.7083L43 24.375ZM36 31.375C37.2833 31.375 38.3333 30.325 38.3333 29.0417H33.6666C33.6666 30.325 34.7166 31.375 36 31.375ZM31.3333 25.5417H40.6666V18.5417C40.6666 15.6483 38.905 13.2917 36 13.2917C33.095 13.2917 31.3333 15.6483 31.3333 18.5417V25.5417Z" fill="white"/>
<circle cx="36" cy="20" r="19" stroke="white" stroke-width="2"/>
<path d="M8.63379 55H7.32617L2.6416 47.7446C2.52311 47.5627 2.42578 47.3722 2.34961 47.1733H2.31152C2.34538 47.368 2.3623 47.7848 2.3623 48.4238V55H1.2959V45.8975H2.67969L7.2373 53.0386C7.42773 53.3348 7.55046 53.5379 7.60547 53.6479H7.63086C7.58854 53.3856 7.56738 52.9391 7.56738 52.3086V45.8975H8.63379V55ZM13.5977 55.1523C12.637 55.1523 11.869 54.8498 11.2935 54.2446C10.7222 53.6353 10.4365 52.8291 10.4365 51.8262C10.4365 50.7344 10.7349 49.8817 11.3315 49.2681C11.9282 48.6545 12.7344 48.3477 13.75 48.3477C14.7191 48.3477 15.4744 48.646 16.0161 49.2427C16.562 49.8394 16.835 50.6667 16.835 51.7246C16.835 52.7614 16.5409 53.5929 15.9526 54.2192C15.3687 54.8413 14.5837 55.1523 13.5977 55.1523ZM13.6738 49.2236C13.0052 49.2236 12.4762 49.4521 12.0869 49.9092C11.6976 50.362 11.5029 50.9883 11.5029 51.7881C11.5029 52.5583 11.6997 53.1655 12.0933 53.6099C12.4868 54.0542 13.0137 54.2764 13.6738 54.2764C14.3467 54.2764 14.863 54.0584 15.2227 53.6226C15.5866 53.1867 15.7686 52.5667 15.7686 51.7627C15.7686 50.9502 15.5866 50.3239 15.2227 49.8838C14.863 49.4437 14.3467 49.2236 13.6738 49.2236ZM21.5132 54.9365C21.2677 55.0719 20.944 55.1396 20.542 55.1396C19.4036 55.1396 18.8345 54.5049 18.8345 53.2354V49.3887H17.7173V48.5H18.8345V46.9131L19.8755 46.5767V48.5H21.5132V49.3887H19.8755V53.0513C19.8755 53.4871 19.9495 53.7982 20.0977 53.9844C20.2458 54.1706 20.4912 54.2637 20.834 54.2637C21.0964 54.2637 21.3228 54.1917 21.5132 54.0479V54.9365ZM23.4365 46.8496C23.2503 46.8496 23.0916 46.7861 22.9604 46.6592C22.8293 46.5322 22.7637 46.3714 22.7637 46.1768C22.7637 45.9821 22.8293 45.8213 22.9604 45.6943C23.0916 45.5632 23.2503 45.4976 23.4365 45.4976C23.627 45.4976 23.7878 45.5632 23.9189 45.6943C24.0544 45.8213 24.1221 45.9821 24.1221 46.1768C24.1221 46.363 24.0544 46.5216 23.9189 46.6528C23.7878 46.784 23.627 46.8496 23.4365 46.8496ZM23.9443 55H22.9033V48.5H23.9443V55ZM29.2637 46.291C29.0605 46.1768 28.8299 46.1196 28.5718 46.1196C27.8439 46.1196 27.48 46.5788 27.48 47.4971V48.5H29.0034V49.3887H27.48V55H26.4453V49.3887H25.3345V48.5H26.4453V47.4463C26.4453 46.765 26.6421 46.2275 27.0356 45.834C27.4292 45.4362 27.9201 45.2373 28.5083 45.2373C28.8257 45.2373 29.0775 45.2754 29.2637 45.3516V46.291ZM30.6602 46.8496C30.474 46.8496 30.3153 46.7861 30.1841 46.6592C30.0529 46.5322 29.9873 46.3714 29.9873 46.1768C29.9873 45.9821 30.0529 45.8213 30.1841 45.6943C30.3153 45.5632 30.474 45.4976 30.6602 45.4976C30.8506 45.4976 31.0114 45.5632 31.1426 45.6943C31.278 45.8213 31.3457 45.9821 31.3457 46.1768C31.3457 46.363 31.278 46.5216 31.1426 46.6528C31.0114 46.784 30.8506 46.8496 30.6602 46.8496ZM31.168 55H30.127V48.5H31.168V55ZM37.7061 54.7017C37.2067 55.0021 36.6143 55.1523 35.9287 55.1523C35.002 55.1523 34.2529 54.8519 33.6816 54.251C33.1146 53.6458 32.8311 52.863 32.8311 51.9023C32.8311 50.8317 33.1379 49.9727 33.7515 49.3252C34.3651 48.6735 35.1839 48.3477 36.208 48.3477C36.7793 48.3477 37.2829 48.4535 37.7188 48.665V49.7314C37.2363 49.3929 36.7201 49.2236 36.1699 49.2236C35.5055 49.2236 34.9596 49.4627 34.5322 49.9409C34.109 50.4149 33.8975 51.0391 33.8975 51.8135C33.8975 52.5752 34.0964 53.1761 34.4941 53.6162C34.8962 54.0563 35.4336 54.2764 36.1064 54.2764C36.6735 54.2764 37.2067 54.0881 37.7061 53.7114V54.7017ZM43.9331 55H42.8921V53.9844H42.8667C42.4139 54.763 41.7474 55.1523 40.8672 55.1523C40.2197 55.1523 39.7119 54.981 39.3438 54.6382C38.9798 54.2954 38.7979 53.8405 38.7979 53.2734C38.7979 52.0589 39.513 51.3522 40.9434 51.1533L42.8921 50.8804C42.8921 49.7759 42.4456 49.2236 41.5527 49.2236C40.7699 49.2236 40.0632 49.4902 39.4326 50.0234V48.957C40.0716 48.5508 40.8079 48.3477 41.6416 48.3477C43.1693 48.3477 43.9331 49.1559 43.9331 50.7725V55ZM42.8921 51.7119L41.3242 51.9277C40.8418 51.9954 40.4779 52.116 40.2324 52.2896C39.987 52.4588 39.8643 52.7614 39.8643 53.1973C39.8643 53.5146 39.9764 53.7749 40.2007 53.978C40.4292 54.1769 40.7318 54.2764 41.1084 54.2764C41.6247 54.2764 42.05 54.0965 42.3843 53.7368C42.7228 53.3729 42.8921 52.9137 42.8921 52.3594V51.7119ZM48.9097 54.9365C48.6642 55.0719 48.3405 55.1396 47.9385 55.1396C46.8001 55.1396 46.231 54.5049 46.231 53.2354V49.3887H45.1138V48.5H46.231V46.9131L47.272 46.5767V48.5H48.9097V49.3887H47.272V53.0513C47.272 53.4871 47.346 53.7982 47.4941 53.9844C47.6423 54.1706 47.8877 54.2637 48.2305 54.2637C48.4928 54.2637 48.7192 54.1917 48.9097 54.0479V54.9365ZM50.833 46.8496C50.6468 46.8496 50.4881 46.7861 50.3569 46.6592C50.2257 46.5322 50.1602 46.3714 50.1602 46.1768C50.1602 45.9821 50.2257 45.8213 50.3569 45.6943C50.4881 45.5632 50.6468 45.4976 50.833 45.4976C51.0234 45.4976 51.1842 45.5632 51.3154 45.6943C51.4508 45.8213 51.5186 45.9821 51.5186 46.1768C51.5186 46.363 51.4508 46.5216 51.3154 46.6528C51.1842 46.784 51.0234 46.8496 50.833 46.8496ZM51.3408 55H50.2998V48.5H51.3408V55ZM56.165 55.1523C55.2044 55.1523 54.4364 54.8498 53.8608 54.2446C53.2896 53.6353 53.0039 52.8291 53.0039 51.8262C53.0039 50.7344 53.3022 49.8817 53.8989 49.2681C54.4956 48.6545 55.3018 48.3477 56.3174 48.3477C57.2865 48.3477 58.0418 48.646 58.5835 49.2427C59.1294 49.8394 59.4023 50.6667 59.4023 51.7246C59.4023 52.7614 59.1082 53.5929 58.52 54.2192C57.936 54.8413 57.151 55.1523 56.165 55.1523ZM56.2412 49.2236C55.5726 49.2236 55.0436 49.4521 54.6543 49.9092C54.265 50.362 54.0703 50.9883 54.0703 51.7881C54.0703 52.5583 54.2671 53.1655 54.6606 53.6099C55.0542 54.0542 55.5811 54.2764 56.2412 54.2764C56.9141 54.2764 57.4303 54.0584 57.79 53.6226C58.154 53.1867 58.3359 52.5667 58.3359 51.7627C58.3359 50.9502 58.154 50.3239 57.79 49.8838C57.4303 49.4437 56.9141 49.2236 56.2412 49.2236ZM66.4609 55H65.4199V51.293C65.4199 49.9134 64.9163 49.2236 63.9092 49.2236C63.3887 49.2236 62.957 49.4204 62.6143 49.814C62.2757 50.2033 62.1064 50.6963 62.1064 51.293V55H61.0654V48.5H62.1064V49.5791H62.1318C62.6227 48.7581 63.3337 48.3477 64.2646 48.3477C64.9756 48.3477 65.5194 48.5783 65.896 49.0396C66.2726 49.4966 66.4609 50.1589 66.4609 51.0264V55ZM68.0352 54.7651V53.6479C68.6022 54.0669 69.2264 54.2764 69.9077 54.2764C70.8218 54.2764 71.2788 53.9717 71.2788 53.3623C71.2788 53.1888 71.2386 53.0428 71.1582 52.9243C71.082 52.8016 70.9762 52.6937 70.8408 52.6006C70.7096 52.5075 70.5531 52.425 70.3711 52.353C70.1934 52.2769 70.0008 52.1986 69.7935 52.1182C69.5057 52.0039 69.2518 51.8896 69.0317 51.7754C68.8159 51.6569 68.634 51.5257 68.4858 51.3818C68.342 51.2337 68.2319 51.0666 68.1558 50.8804C68.0838 50.6942 68.0479 50.4762 68.0479 50.2266C68.0479 49.9219 68.1177 49.6532 68.2573 49.4204C68.397 49.1834 68.5832 48.9867 68.8159 48.8301C69.0487 48.6693 69.3132 48.5487 69.6094 48.4683C69.9098 48.3879 70.2188 48.3477 70.5361 48.3477C71.099 48.3477 71.6025 48.445 72.0469 48.6396V49.6934C71.5687 49.3802 71.0186 49.2236 70.3965 49.2236C70.2018 49.2236 70.0262 49.2469 69.8696 49.2935C69.7131 49.3358 69.5776 49.3971 69.4634 49.4775C69.3534 49.5579 69.2666 49.6553 69.2031 49.7695C69.1439 49.8796 69.1143 50.0023 69.1143 50.1377C69.1143 50.307 69.1439 50.4487 69.2031 50.563C69.2666 50.6772 69.3576 50.7788 69.4761 50.8677C69.5946 50.9565 69.7384 51.0369 69.9077 51.1089C70.077 51.1808 70.2695 51.2591 70.4854 51.3438C70.7731 51.4538 71.0312 51.568 71.2598 51.6865C71.4883 51.8008 71.6829 51.932 71.8438 52.0801C72.0046 52.224 72.1273 52.3911 72.2119 52.5815C72.3008 52.772 72.3452 52.9984 72.3452 53.2607C72.3452 53.5824 72.2733 53.8617 72.1294 54.0986C71.9897 54.3356 71.8014 54.5324 71.5645 54.689C71.3275 54.8455 71.0545 54.9619 70.7456 55.0381C70.4367 55.1143 70.113 55.1523 69.7744 55.1523C69.1058 55.1523 68.526 55.0233 68.0352 54.7651Z" fill="white"/>
</svg>
